<svg width="14480" height="9909" viewBox="0 0 14480 9909" fill="none" xmlns="http://www.w3.org/2000/svg">
<g clip-path="url(#clip0_48_2)">
<path d="M1027.69 5425.35L0.126953 8384.42L4390.25 9908.93L5417.82 6949.86L1027.69 5425.35Z" fill="#EBEBEB"/>
<path d="M5417.53 6949.16C5400.22 6959.31 5381.99 6967.81 5363.07 6974.54L5203.69 7038.97L4614.04 7269.64L2658.64 8018.1L2642.39 8024.09L2633.26 8009.55L2610.74 7974.19L1483.91 6176.18L1146.32 5628.73L1056.51 5478.76C1045.39 5461.69 1035.85 5443.66 1027.99 5424.87C1041.46 5440.1 1053.4 5456.62 1063.64 5474.19L1160.29 5619.89L1509 6161.35L2646.66 7952.81C2654.08 7965.07 2661.78 7977.04 2668.9 7988.16L2643.53 7979.61L4603.49 7243.13L5197.99 7023.86L5360.22 6966.84C5378.7 6959.09 5397.9 6953.17 5417.53 6949.16Z" fill="#E0E0E0"/>
<path d="M0.109193 8385.35C-5.87849 8375.37 465.152 8084.54 1051.94 7735.54C1638.74 7386.55 2119.46 7111.97 2125.45 7121.95C2131.44 7131.93 1660.41 7422.76 1073.33 7771.75C486.252 8120.75 6.09687 8393.9 0.109193 8385.35Z" fill="#E0E0E0"/>
<path d="M3597.57 7590.13C3608.4 7586.42 3794.87 8103.36 4013.85 8742.33C4232.83 9381.3 4401.34 9904.51 4390.22 9908.21C4379.1 9911.92 4192.91 9394.98 3973.93 8756.01C3754.96 8117.04 3586.45 7593.83 3597.57 7590.13Z" fill="#E0E0E0"/>
<path d="M13982.9 4655.16L9638.77 5391.47L10135.1 8319.59L14479.2 7583.28L13982.9 4655.16Z" fill="#E0E0E0"/>
<path d="M13982.5 4656.45C13972.7 4672.76 13961.5 4688.13 13948.8 4702.35L13845.9 4828.66L13461 5289.43C13130.5 5679.2 12678.3 6212.67 12177.9 6803.46L12167.4 6816L12153.1 6808.02L12118.3 6788.92L10361.4 5808.65L9831.31 5507.55L9688.75 5424.01C9671.54 5415.16 9655.3 5404.55 9640.27 5392.36C9658.43 5399.02 9675.98 5407.22 9692.74 5416.88L9839.58 5494.15L10375.9 5783.84L12138.6 6753.28L12173.3 6772.38L12148.5 6776.94L13441.3 5270.61L13835.6 4818.11C13881 4767.65 13916.9 4727.16 13944.3 4696.36C13955.9 4682.07 13968.7 4668.72 13982.5 4656.45Z" fill="#EBEBEB"/>
<path d="M10134.7 8320.62C10125.3 8314.92 10383.9 7858.15 10712.4 7300.44C11040.8 6742.73 11315.1 6295.08 11324.5 6300.78C11333.9 6306.48 11075.3 6762.97 10746.9 7320.97C10418.4 7878.96 10144.1 8326.04 10134.7 8320.62Z" fill="#EBEBEB"/>
<path d="M12762.4 6018.79C12769.8 6010.8 13161.6 6354.38 13634.1 6786.64C14106.5 7218.89 14486.3 7575.87 14478.6 7584.99C14470.9 7594.12 14081.1 7248.83 13607 6817.14C13132.8 6385.46 12753.9 6027.63 12762.4 6018.79Z" fill="#EBEBEB"/>
<path d="M9640.62 0.800293L8858.02 1990.6L11810.2 3151.72L12592.8 1161.92L9640.62 0.800293Z" fill="#EBEBEB"/>
<path d="M12591.9 1188.44C12579.9 1195.13 12567.2 1200.39 12554 1204.12L12443.6 1244.04L12035.1 1385.18L10680.4 1841.38L10669.3 1845.09L10663.6 1834.83L10649.3 1810.31L9931.1 552.607C9841.29 393.221 9768.3 263.203 9716.12 169.966L9659.09 65.3243C9651.85 53.3766 9645.74 40.7759 9640.84 27.6875C9649.68 38.4443 9657.51 49.9934 9664.22 62.1879C9679.62 88.1345 9700.15 122.065 9726.1 164.264L9949.07 542.628C10136.1 865.678 10392.4 1307.63 10675.3 1797.19L10689.5 1822L10672.7 1815.44L12029.6 1367.22L12440.2 1233.49L12552.3 1200.13C12565.2 1195.19 12578.4 1191.28 12591.9 1188.44Z" fill="#E0E0E0"/>
<path d="M8857.31 2017.59C8853.32 2010.75 9182.64 1825.13 9592.66 1603.3C10002.7 1381.47 10338 1207.54 10341.7 1214.39C10345.4 1221.23 10016.6 1406.85 9606.34 1627.82C9196.04 1848.8 8861.02 2024.72 8857.31 2017.59Z" fill="#E0E0E0"/>
<path d="M11332.8 1575.36C11340.5 1573.08 11453.4 1930.34 11584.8 2373.72C11716.3 2817.09 11817.2 3177.21 11809.5 3179.49C11801.8 3181.77 11688.9 2824.79 11557.5 2381.13C11426 1937.47 11325.1 1577.64 11332.8 1575.36Z" fill="#E0E0E0"/>
<path d="M3893.24 4789.89L10618.5 4741.13L10805.9 9313.44L3841.92 9249L3893.24 4789.89Z" fill="url(#paint0_linear_48_2)"/>
<path d="M3892.96 4789.89L7076.12 2214.33C7141.52 2161.47 7223.15 2132.78 7307.24 2133.1C7391.33 2133.41 7472.74 2162.7 7537.74 2216.04L10618.5 4741.13" fill="url(#paint1_linear_48_2)"/>
<g opacity="0.3">
<path d="M3892.96 4789.89L7076.12 2214.33C7141.52 2161.47 7223.15 2132.78 7307.24 2133.1C7391.33 2133.41 7472.74 2162.7 7537.74 2216.04L10618.5 4741.13" fill="black"/>
</g>
<path d="M3841.92 9249C3833.65 9241.02 4371.97 8653.08 5044.59 7935.99C5717.2 7218.89 6268.92 6643.79 6277.48 6651.49C6286.03 6659.18 5747.43 7247.12 5074.81 7964.5C4402.19 8681.88 3850.47 9256.7 3841.92 9249Z" fill="#263238"/>
<path d="M10805.9 9313.44C10797.3 9321.13 10273 8745.18 9634.86 8027.23C8996.74 7309.27 8486.36 6720.77 8494.35 6713.07C8502.33 6705.37 9027.25 7281.33 9665.37 7999.57C10303.5 8717.8 10815 9305.74 10805.9 9313.44Z" fill="#263238"/>
<g opacity="0.5">
<path d="M10618.5 4741.13L7241.21 7439.01L3893.24 4789.89" fill="black"/>
</g>
<path d="M4231.69 5039.66L4221.42 2939.41L10110.2 2869.55L10176.6 5079.58L7240.93 7403.65L4231.69 5039.66Z" fill="#FAFAFA"/>
<path d="M4231.69 5039.66C4231.69 5039.66 4250.79 5053.92 4287 5082.14L4446.67 5206.46L5055.42 5681.77L7245.49 7398.81H7238.07L10172.9 5073.88L10170 5079.86C10157.5 4658.44 10144.1 4215.93 10130.4 3766C10121.6 3462.9 10112.4 3163.52 10103.6 2869.84L10111 2876.97L4222.28 2943.97L4226.84 2939.41C4229.12 3600.05 4231.12 4124.97 4232.26 4484.8C4232.26 4664.72 4232.26 4803.29 4232.26 4897.1V5003.45C4232.26 5027.4 4232.26 5039.66 4232.26 5039.66C4232.26 5039.66 4232.26 5027.68 4232.26 5004.02C4232.26 4980.35 4232.26 4944.71 4232.26 4898.24C4232.26 4804.43 4230.26 4666.14 4228.84 4486.51C4226.56 4126.11 4223.13 3600.91 4218.86 2939.41V2934.56H4223.42L10112.4 2862.43H10119.6V2869.84C10128.4 3163.24 10137.3 3462.62 10146.4 3765.71C10160.1 4215.93 10173.2 4658.16 10186 5079.86V5083.57L10183.2 5085.85L7246.34 7408.79L7242.64 7411.64L7238.93 7408.79L5050.29 5686.04L4445.25 5208.46L4285.58 5083C4249.65 5054.49 4231.69 5039.66 4231.69 5039.66Z" fill="#263238"/>
<path d="M9179.51 3927.38C9179.51 3931.37 8278.79 3940.21 7168.22 3946.76C6057.64 3953.32 5156.64 3955.89 5156.64 3951.61C5156.64 3947.34 6057.07 3938.78 7168.22 3931.94C8279.36 3925.1 9179.51 3923.1 9179.51 3927.38Z" fill="#263238"/>
<path d="M9179.51 4520.44C9179.51 4524.72 8278.79 4533.56 7168.22 4540.12C6057.64 4546.67 5156.64 4548.96 5156.64 4544.96C5156.64 4540.97 6057.07 4532.13 7168.22 4525.29C8279.36 4518.45 9179.51 4516.45 9179.51 4520.44Z" fill="#263238"/>
<path d="M9179.51 5204.46C9179.51 5208.45 8278.79 5217.29 7168.22 5224.14C6057.64 5230.98 5156.64 5232.98 5156.64 5228.7C5156.64 5224.42 6057.07 5215.87 7168.22 5209.31C8279.36 5202.75 9179.51 5200.19 9179.51 5204.46Z" fill="#263238"/>
<path d="M9179.51 5888.2C9179.51 5892.48 8320.42 5900.75 7260.6 5907.3C6200.78 5913.86 5341.69 5915.57 5341.4 5911.58C5341.12 5907.59 6200.49 5899.04 7260.6 5892.48C8320.7 5885.92 9179.51 5884.21 9179.51 5888.2Z" fill="#263238"/>
<path d="M8426.2 6488.39C8418.48 6489.7 8410.65 6490.27 8402.82 6490.1L8334.96 6492.1L8086.33 6496.09L7265.45 6507.78C6944.96 6513.2 6654.42 6514.91 6444.28 6515.19H6195.65H6127.79C6119.97 6515.34 6112.15 6514.86 6104.41 6513.77C6112.13 6512.46 6119.96 6511.89 6127.79 6512.06L6195.65 6510.35L6444.28 6506.07L7265.16 6494.38C7585.64 6488.96 7876.19 6487.25 8086.04 6486.97H8334.96H8402.82C8410.64 6486.95 8418.44 6487.42 8426.2 6488.39Z" fill="#263238"/>
<path d="M7668.05 7065.49C7668.05 7069.48 7476.16 7072.9 7240.36 7072.9C7004.55 7072.9 6812.66 7069.48 6812.66 7065.49C6812.66 7061.5 7004.84 7058.08 7240.36 7058.08C7475.87 7058.08 7668.05 7061.21 7668.05 7065.49Z" fill="#263238"/>
<path d="M9650.25 6599.59C10043.1 6599.59 10361.6 6281.09 10361.6 5888.2C10361.6 5495.31 10043.1 5176.81 9650.25 5176.81C9257.36 5176.81 8938.86 5495.31 8938.86 5888.2C8938.86 6281.09 9257.36 6599.59 9650.25 6599.59Z" fill="#263238"/>
<path d="M9465.21 6599.59C9858.1 6599.59 10176.6 6281.09 10176.6 5888.2C10176.6 5495.31 9858.1 5176.81 9465.21 5176.81C9072.31 5176.81 8753.81 5495.31 8753.81 5888.2C8753.81 6281.09 9072.31 6599.59 9465.21 6599.59Z" fill="#455A64"/>
<path d="M9555.59 5557.17V6148.52H9446.39V5648.12H9321.21V5556.03L9555.59 5557.17Z" fill="#EBEBEB"/>
<path d="M4277.88 1979.96H4928.54L4840.44 1879.02V1636.95C4840.44 1574.03 4815.44 1513.69 4770.95 1469.2C4726.47 1424.72 4666.13 1399.72 4603.21 1399.72C4572.07 1399.72 4541.24 1405.86 4512.47 1417.79C4483.7 1429.71 4457.57 1447.19 4435.57 1469.22C4413.56 1491.25 4396.11 1517.41 4384.22 1546.19C4372.33 1574.97 4366.23 1605.81 4366.27 1636.95V1867.05L4277.88 1979.96Z" fill="url(#paint2_linear_48_2)"/>
<path d="M4513.68 1948.02C4514.4 1962.19 4518.11 1976.04 4524.58 1988.67C4531.04 2001.29 4540.11 2012.41 4551.18 2021.27C4562.25 2030.14 4575.08 2036.56 4588.81 2040.11C4602.55 2043.65 4616.88 2044.25 4630.86 2041.86C4644.84 2039.46 4658.15 2034.13 4669.92 2026.22C4681.69 2018.3 4691.65 2007.98 4699.14 1995.93C4706.64 1983.89 4711.49 1970.39 4713.38 1956.33C4715.28 1942.27 4714.17 1927.98 4710.13 1914.38" fill="url(#paint3_linear_48_2)"/>
<path d="M4639.42 1301.07H4575.55V1436.79H4639.42V1301.07Z" fill="url(#paint4_linear_48_2)"/>
<path d="M5551.83 1534.87C5549.9 1529.29 5548.37 1523.57 5547.27 1517.76C5544.42 1505.5 5540.71 1489.25 5535.86 1467.58C5529.91 1440.31 5522.2 1413.45 5512.77 1387.18C5507.06 1371.78 5503.07 1354.39 5495.37 1336.99L5471.14 1281.68C5427.28 1188.24 5369.07 1102.23 5298.64 1026.77C5206.12 929.251 5094.11 852.308 4969.88 800.953C4899.14 771.174 4825.03 750.11 4749.2 738.225C4667.4 726.305 4584.41 724.963 4502.27 734.233C4459.06 738.78 4416.19 746.209 4373.97 756.473C4352.58 761.035 4331.77 769.304 4310.1 775.862C4288.34 781.9 4267.08 789.621 4246.52 798.957C4159.16 834.286 4077.86 883.062 4005.58 943.517C3845.17 1075.79 3732.09 1256.61 3683.39 1458.74C3657.75 1567.04 3651.47 1679.01 3664.85 1789.49C3676.6 1903.78 3709.77 2014.82 3762.65 2116.82L3779.19 2147.9L3781.19 2151.89V2156.16C3728.44 2327.24 3677.11 2498.32 3626.93 2661.7L3613.53 2649.44L4020.98 2437.02L4025.83 2434.45L4030.39 2437.87C4200.73 2569.23 4410.69 2638.76 4625.77 2635.03C4840.85 2631.3 5048.27 2554.53 5213.95 2417.34C5298.91 2346.31 5371.29 2261.49 5428.08 2166.43C5473.48 2087.04 5508.46 2002.14 5532.16 1913.81C5548.14 1846.72 5557.69 1778.27 5560.67 1709.37C5560.67 1680.86 5560.67 1656.34 5560.67 1634.38C5560.67 1612.43 5557.25 1595.03 5556.11 1579.92C5554.97 1564.81 5553.82 1554.83 5553.25 1546.56C5552.81 1542.77 5552.81 1538.95 5553.25 1535.16C5554.26 1538.79 5554.93 1542.52 5555.25 1546.28C5555.25 1554.64 5556.68 1565.76 5559.53 1579.64C5561.24 1594.75 5563.23 1612.71 5565.8 1634.38C5568.37 1656.05 5565.8 1681.43 5565.8 1709.66C5564.21 1779.15 5555.61 1848.31 5540.14 1916.09C5517.38 2005.77 5482.86 2092.06 5437.49 2172.7C5380.7 2269.83 5307.81 2356.61 5221.94 2429.32C5116.8 2517.08 4994.17 2581.45 4862.21 2618.12C4730.26 2654.8 4592 2662.95 4456.65 2642.02C4297.35 2616.72 4146.79 2552.36 4018.41 2454.69H4028.11L3621.23 2667.68L3600.7 2678.52L3607.54 2655.42L3761.51 2149.89V2158.16L3744.69 2126.51C3690.75 2022.27 3656.9 1908.81 3644.9 1792.06C3630.94 1678.99 3637.51 1564.34 3664.28 1453.61C3714.16 1247.53 3829.76 1063.27 3993.61 928.69C4067.57 867.498 4150.58 818.154 4239.67 782.42C4260.6 772.943 4282.24 765.125 4304.4 759.039C4326.35 752.767 4347.45 744.498 4369.4 739.936C4412.25 729.394 4455.8 721.961 4499.71 717.696C4583.21 708.502 4667.56 710.227 4750.62 722.828C4827.45 735.565 4902.49 757.388 4974.16 787.837C5099.73 840.709 5212.66 919.621 5305.48 1019.36C5375.93 1096.21 5433.68 1183.8 5476.56 1278.83C5484.82 1298.79 5492.81 1317.32 5499.94 1335.85C5507.06 1354.39 5511.34 1371.21 5516.76 1386.89C5526.01 1413.38 5533.16 1440.55 5538.14 1468.15C5542.13 1489.54 5545.56 1506.36 5547.84 1518.9C5549.52 1524.13 5550.85 1529.47 5551.83 1534.87Z" fill="#263238"/>
</g>
<defs>
<linearGradient id="paint0_linear_48_2" x1="7323.91" y1="4741.13" x2="7323.91" y2="9313.44" gradientUnits="userSpaceOnUse">
<stop stop-color="#00ED64"/>
<stop offset="1" stop-color="#00684A"/>
</linearGradient>
<linearGradient id="paint1_linear_48_2" x1="7255.73" y1="2133.1" x2="7255.73" y2="4789.89" gradientUnits="userSpaceOnUse">
<stop stop-color="#00ED64"/>
<stop offset="1" stop-color="#00684A"/>
</linearGradient>
<linearGradient id="paint2_linear_48_2" x1="4603.21" y1="1399.72" x2="4603.21" y2="1979.96" gradientUnits="userSpaceOnUse">
<stop stop-color="#00ED64"/>
<stop offset="1" stop-color="#00684A"/>
</linearGradient>
<linearGradient id="paint3_linear_48_2" x1="4613.98" y1="1914.38" x2="4613.98" y2="2043.3" gradientUnits="userSpaceOnUse">
<stop stop-color="#00ED64"/>
<stop offset="1" stop-color="#00684A"/>
</linearGradient>
<linearGradient id="paint4_linear_48_2" x1="4607.48" y1="1301.07" x2="4607.48" y2="1436.79" gradientUnits="userSpaceOnUse">
<stop stop-color="#00ED64"/>
<stop offset="1" stop-color="#00684A"/>
</linearGradient>
<clipPath id="clip0_48_2">
<rect width="14480" height="9909" fill="white"/>
</clipPath>
</defs>
</svg>
