<svg width="20251" height="26059" viewBox="0 0 20251 26059" fill="none" xmlns="http://www.w3.org/2000/svg">
<g clip-path="url(#clip0_49_2)">
<path d="M1681.92 17381C1635.3 17371.7 1589.67 17358 1545.6 17340.1C1499.83 17326.7 1455.47 17308.9 1413.12 17287C1459.94 17296.4 1505.78 17310.1 1550.08 17327.9C1595.72 17341.1 1639.9 17358.9 1681.92 17381Z" fill="#455A64"/>
<path d="M1664 17050.8C1664 17054.6 1600 17072.6 1525.76 17102.6C1451.52 17132.7 1390.72 17161.5 1388.8 17158.3C1471.96 17103.5 1565.73 17066.9 1664 17050.8Z" fill="#455A64"/>
<path d="M1720.32 16231.6C1768.32 16321.8 1779.56 16427.1 1751.68 16525.4C1761.39 16426.3 1750.71 16326.4 1720.32 16231.6Z" fill="#455A64"/>
<path d="M18682.2 14869.7C18723.6 14820.3 18759.8 14766.9 18790.4 14710.3C18817.7 14652 18839.2 14591.1 18854.4 14528.6C18855.5 14547.7 18853.6 14567 18848.6 14585.5C18830.7 14676.9 18788.2 14761.6 18725.8 14830.6C18713.3 14845.8 18698.7 14859 18682.2 14869.7Z" fill="#455A64"/>
<path d="M18880.6 13962.2C18862.3 14008.9 18839.8 14053.9 18813.4 14096.6C18790.8 14141.3 18764.5 14184.1 18734.7 14224.6C18753.1 14177.8 18775.6 14132.9 18801.9 14090.2C18824.2 14045.2 18850.5 14002.3 18880.6 13962.2Z" fill="#455A64"/>
<path d="M18568.3 13933.4C18581.7 13980.5 18592.6 14028.4 18601 14076.7C18613.8 14124.1 18623.8 14172.2 18631 14220.7C18611.1 14175.6 18596.5 14128.4 18587.5 14079.9C18574.8 14032.1 18568.3 13982.8 18568.3 13933.4Z" fill="#455A64"/>
<path d="M18288.6 14222.6C18335.2 14232.1 18380.9 14245.8 18425 14263.6C18470.6 14276.9 18514.7 14294.7 18556.8 14316.7C18510.2 14307.2 18464.6 14293.4 18420.5 14275.8C18374.8 14262.7 18330.6 14244.9 18288.6 14222.6Z" fill="#455A64"/>
<path d="M18305.9 14552.9C18305.9 14549 18369.9 14531.1 18444.2 14501C18518.4 14471 18579.2 14442.2 18581.1 14445.4C18540.9 14474.7 18496.4 14497.8 18449.3 14513.8C18403.7 14533.8 18355.4 14547 18305.9 14552.9Z" fill="#455A64"/>
<path d="M18581.8 14808.2C18578.6 14808.2 18613.1 14748.7 18645.8 14674.5C18678.4 14600.2 18702.1 14536.2 18705.9 14537.5C18697 14587.2 18680.9 14635.3 18657.9 14680.2C18639.3 14726.6 18613.6 14769.8 18581.8 14808.2Z" fill="#455A64"/>
<path d="M18605.4 14941.4C18605.4 14937.5 18669.4 14974.6 18757.8 15005.4C18846.1 15036.1 18917.1 15045 18916.5 15048.9C18900.4 15051.5 18883.9 15051.5 18867.8 15048.9C18789.9 15037 18714.6 15011.2 18645.8 14972.7C18630.5 14964.8 18616.9 14954.2 18605.4 14941.4Z" fill="#455A64"/>
<path d="M18453.1 15031C18457.6 15031 18476.8 15095 18517.1 15164.1C18557.4 15233.2 18601.6 15284.4 18598.4 15287C18524.1 15219.2 18473.5 15129.5 18453.8 15031H18453.1Z" fill="#455A64"/>
<path d="M18253.4 15372.1C18227.5 15328.3 18212.3 15278.9 18209.3 15228.1C18201.8 15177.9 18206 15126.6 18221.4 15078.3C18218.8 15127.8 18218.8 15177.3 18221.4 15226.8C18229.3 15275.8 18240 15324.3 18253.4 15372.1Z" fill="#455A64"/>
<path d="M12997.8 5870C12840.5 5843.35 12693 5775.82 12570.1 5674.19C12447.2 5572.55 12353.2 5440.37 12297.5 5290.92C12241.8 5141.47 12226.4 4980 12252.8 4822.72C12279.2 4665.43 12346.5 4517.86 12448 4394.8L15779.8 348.719C15880.6 224.698 16012.5 129.703 16162.1 73.4721C16311.7 17.2406 16473.5 1.79515 16631 28.7186H16634.2C16791.2 54.4385 16938.6 121.288 17061.4 222.464C17184.1 323.641 17277.9 455.532 17333.1 604.718L19171.2 5513.52C19227.2 5662.99 19242.8 5824.56 19216.6 5981.99C19190.3 6139.42 19123.1 6287.17 19021.7 6410.39C18920.2 6533.62 18788.1 6627.98 18638.7 6684C18489.2 6740.01 18327.7 6755.71 18170.2 6729.52L13000.3 5866.8L12997.8 5870Z" fill="url(#paint0_linear_49_2)"/>
<path d="M12997.8 5870L13052.2 5877.04L13212.8 5902L13829.8 6001.84L16096.6 6374.96L17662.1 6630.96L18091.5 6702C18163.6 6716.59 18236.9 6725.15 18310.4 6727.6C18384.5 6729.08 18458.5 6720.9 18530.6 6703.28C18680.5 6666.41 18818.4 6591.58 18931.1 6486C19043.7 6380.42 19127.3 6247.63 19173.8 6100.4C19222.3 5947.4 19227.8 5784.01 19189.8 5628.08C19168 5549.11 19141.5 5471.53 19110.4 5395.76C19081 5317.68 19052.2 5239.6 19022.7 5160.88C18904.5 4846.43 18784.2 4526.43 18661.8 4200.88C18416.6 3547.44 18163.2 2870.96 17904 2177.84C17776 1831.39 17648 1490.05 17520 1153.84C17456 984.879 17392 817.839 17331.8 651.439C17286.2 509.653 17205.8 381.553 17098 278.838C16990.1 176.123 16858.2 102.066 16714.4 63.4323C16570.6 24.7983 16419.3 22.8178 16274.5 57.6718C16129.7 92.5258 15996 163.104 15885.4 262.959C15826.5 319.771 15771.8 380.727 15721.6 445.359C15617.5 573.359 15514.2 698.586 15411.8 821.039L13242.9 3449.52C12935.7 3824.56 12652.2 4160.56 12410.9 4460.08C12307.4 4605.6 12250.1 4778.86 12246.4 4957.36C12244.1 5107.41 12278.6 5255.74 12346.9 5389.36C12400.8 5496.2 12475.4 5591.27 12566.4 5669.04C12633.6 5725.54 12708.7 5772.09 12789.1 5807.28C12838.8 5828.7 12890.2 5846.04 12942.7 5859.12C12977.9 5866.8 12996.5 5871.92 12996.5 5871.92C12996.5 5871.92 12977.9 5871.92 12941.4 5862.32C12812 5834.45 12690.5 5778.04 12585.6 5697.22C12480.7 5616.39 12395.3 5513.18 12335.4 5395.12C12265 5260.03 12228.9 5109.69 12230.4 4957.36C12233.1 4775.22 12290.6 4598.12 12395.5 4449.2C12635.5 4146.48 12917.1 3809.2 13223.7 3434.8L15386.9 801.839L15696.6 425.519C15747.2 359.455 15802.9 297.404 15863 239.919C15927.4 181.861 15999.5 133.168 16077.4 95.279C16196.3 36.8527 16326.4 4.63401 16458.8 0.801449C16591.2 -3.03112 16722.9 21.6116 16845 73.0637C16967.1 124.516 17076.7 201.578 17166.4 299.04C17256.2 396.503 17323.9 512.094 17365.1 637.999C17429.1 804.399 17493.1 971.439 17553.3 1140.4C17681.3 1477.68 17809.3 1820.72 17937.3 2164.4C18197.1 2857.52 18449.3 3534 18695 4188.08C18817.1 4514.48 18937 4834.48 19054.7 5148.08L19142.4 5382.32C19173.9 5459.4 19200.8 5538.26 19223 5618.48C19262 5779.99 19256 5949.07 19205.8 6107.44C19157.4 6259.52 19070.8 6396.64 18954.2 6505.67C18837.7 6614.7 18695.1 6691.99 18540.2 6730.16C18465.5 6747.79 18389 6755.96 18312.3 6754.48C18237.3 6751.97 18162.6 6743.19 18089 6728.24L17660.2 6656.56L16095.4 6393.52L13830.4 6009.52L13214.7 5903.92L13054.7 5875.76L12997.8 5870Z" fill="#263238"/>
<path d="M16589.4 298.159C16478.8 278.064 16364.8 287.941 16259.2 326.766C16153.6 365.591 16060.4 431.949 15989.1 518.959L12657.3 4565.04C12586.9 4651.46 12540.3 4754.76 12522.1 4864.72C12503.9 4974.68 12514.7 5087.48 12553.5 5191.96C12592.3 5296.45 12657.7 5388.99 12743.3 5460.43C12828.8 5531.87 12931.6 5579.73 13041.3 5599.28L18215 6464.56C18325.5 6482.67 18438.8 6471.5 18543.6 6432.16C18648.4 6392.82 18741 6326.68 18812.2 6240.34C18883.5 6154.01 18930.8 6050.5 18949.6 5940.15C18968.3 5829.79 18957.8 5716.45 18919 5611.44L17079 703.279C17040.5 598.514 16974.9 505.832 16888.9 434.669C16802.9 363.506 16699.6 316.405 16589.4 298.159Z" fill="white"/>
<path d="M15456.6 4794.8C15464 4750.08 15480.4 4707.32 15504.8 4669.11C15529.2 4630.9 15561.1 4598.04 15598.5 4572.49C15636 4546.95 15678.2 4529.26 15722.7 4520.5C15767.2 4511.74 15812.9 4512.09 15857.3 4521.52C15900.9 4528.62 15942.6 4544.24 15980.1 4567.47C16017.7 4590.71 16050.3 4621.12 16076.1 4656.95C16101.9 4692.79 16120.4 4733.35 16130.5 4776.33C16140.6 4819.31 16142.1 4863.86 16135 4907.44C16127.9 4951.02 16112.3 4992.77 16089.1 5030.31C16065.8 5067.86 16035.4 5100.45 15999.6 5126.25C15963.8 5152.04 15923.2 5170.52 15880.2 5180.63C15837.2 5190.75 15792.7 5192.3 15749.1 5185.2C15703.9 5179.59 15660.3 5164.92 15620.9 5142.07C15581.5 5119.22 15547.1 5088.66 15519.8 5052.21C15492.5 5015.76 15472.9 4974.17 15462 4929.95C15451.1 4885.72 15449.3 4839.75 15456.6 4794.8ZM15924.5 2106.8L16558.7 2210.48L16125.4 4197.68L15701.1 4128.56L15924.5 2106.8Z" fill="url(#paint1_linear_49_2)"/>
<path d="M15085.4 6218.16L14544.6 8893.36H15701.1L16176 6399.92L15085.4 6218.16Z" fill="#455A64"/>
<path d="M16160.6 22572.1H3610.24V25379.8H16160.6V22572.1Z" fill="#E0E0E0"/>
<path d="M18128.6 25379.8H2076.8C1932.94 25379.8 1816.32 25496.4 1816.32 25640.2V25781C1816.32 25924.9 1932.94 26041.5 2076.8 26041.5H18128.6C18272.5 26041.5 18389.1 25924.9 18389.1 25781V25640.2C18389.1 25496.4 18272.5 25379.8 18128.6 25379.8Z" fill="#E0E0E0"/>
<path d="M17881 7691.44H2168.96C2049.49 7691.44 1952.64 7788.29 1952.64 7907.76V22355.8C1952.64 22475.2 2049.49 22572.1 2168.96 22572.1H17881C18000.4 22572.1 18097.3 22475.2 18097.3 22355.8V7907.76C18097.3 7788.29 18000.4 7691.44 17881 7691.44Z" fill="#E0E0E0"/>
<path d="M17139.2 8783.92H2794.88V21863.6H17139.2V8783.92Z" fill="#263238"/>
<path d="M16472.3 13586.5H3150.08V16891.4H16472.3V13586.5Z" fill="#455A64"/>
<path d="M6365.44 14267.4H3742.08V14671.3H6365.44V14267.4Z" fill="#263238"/>
<path d="M6365.44 14961.8H3742.08V15365.7H6365.44V14961.8Z" fill="#263238"/>
<path d="M6365.44 15679.9H3742.08V16083.8H6365.44V15679.9Z" fill="#263238"/>
<path d="M7402.24 14511.3C7402.24 14541 7393.42 14570.1 7376.89 14594.8C7360.37 14619.6 7336.88 14638.8 7309.4 14650.2C7281.92 14661.6 7251.68 14664.6 7222.5 14658.8C7193.33 14653 7166.53 14638.7 7145.49 14617.6C7124.46 14596.6 7110.13 14569.8 7104.33 14540.6C7098.53 14511.4 7101.51 14481.2 7112.89 14453.7C7124.27 14426.2 7143.55 14402.8 7168.28 14386.2C7193.02 14369.7 7222.1 14360.9 7251.84 14360.9C7291.73 14360.9 7329.99 14376.7 7358.19 14404.9C7386.4 14433.1 7402.24 14471.4 7402.24 14511.3Z" fill="#263238"/>
<path d="M8066.56 14511.3C8066.69 14541.2 8057.94 14570.4 8041.42 14595.4C8024.9 14620.3 8001.35 14639.7 7973.76 14651.3C7946.18 14662.8 7915.79 14665.9 7886.45 14660.1C7857.11 14654.4 7830.13 14640 7808.95 14618.9C7787.76 14597.8 7773.31 14570.9 7767.43 14541.6C7761.55 14512.3 7764.5 14481.9 7775.92 14454.3C7787.33 14426.6 7806.69 14403 7831.54 14386.4C7856.39 14369.8 7885.62 14360.9 7915.52 14360.9C7955.47 14360.9 7993.79 14376.7 8022.1 14404.9C8050.4 14433.1 8066.39 14471.3 8066.56 14511.3Z" fill="#263238"/>
<path d="M8730.24 14511.3C8730.24 14541 8721.42 14570.1 8704.89 14594.8C8688.37 14619.6 8664.88 14638.8 8637.4 14650.2C8609.92 14661.6 8579.68 14664.6 8550.5 14658.8C8521.33 14653 8494.53 14638.7 8473.49 14617.6C8452.46 14596.6 8438.13 14569.8 8432.33 14540.6C8426.53 14511.4 8429.51 14481.2 8440.89 14453.7C8452.27 14426.2 8471.55 14402.8 8496.28 14386.2C8521.02 14369.7 8550.1 14360.9 8579.84 14360.9C8619.73 14360.9 8657.99 14376.7 8686.19 14404.9C8714.4 14433.1 8730.24 14471.4 8730.24 14511.3Z" fill="#263238"/>
<path d="M9394.56 14511.3C9394.69 14541.2 9385.94 14570.4 9369.42 14595.4C9352.9 14620.3 9329.35 14639.7 9301.76 14651.3C9274.18 14662.8 9243.79 14665.9 9214.45 14660.1C9185.11 14654.4 9158.13 14640 9136.95 14618.9C9115.76 14597.8 9101.31 14570.9 9095.43 14541.6C9089.55 14512.3 9092.5 14481.9 9103.92 14454.3C9115.33 14426.6 9134.69 14403 9159.54 14386.4C9184.39 14369.8 9213.62 14360.9 9243.52 14360.9C9283.47 14360.9 9321.79 14376.7 9350.1 14404.9C9378.4 14433.1 9394.39 14471.3 9394.56 14511.3Z" fill="#263238"/>
<path d="M14541.4 14511.3C14541.6 14541.2 14532.8 14570.4 14516.3 14595.4C14499.8 14620.3 14476.2 14639.7 14448.6 14651.3C14421.1 14662.8 14390.7 14665.9 14361.3 14660.1C14332 14654.4 14305 14640 14283.8 14618.9C14262.6 14597.8 14248.2 14570.9 14242.3 14541.6C14236.4 14512.3 14239.4 14481.9 14250.8 14454.3C14262.2 14426.6 14281.6 14403 14306.4 14386.4C14331.3 14369.8 14360.5 14360.9 14390.4 14360.9C14430.4 14360.9 14468.7 14376.7 14497 14404.9C14525.3 14433.1 14541.3 14471.3 14541.4 14511.3Z" fill="#263238"/>
<path d="M15217.3 14511.3C15217.4 14541.2 15208.7 14570.4 15192.1 14595.4C15175.6 14620.3 15152.1 14639.7 15124.5 14651.3C15096.9 14662.8 15066.5 14665.9 15037.2 14660.1C15007.8 14654.4 14980.9 14640 14959.7 14618.9C14938.5 14597.8 14924 14570.9 14918.2 14541.6C14912.3 14512.3 14915.2 14481.9 14926.6 14454.3C14938.1 14426.6 14957.4 14403 14982.3 14386.4C15007.1 14369.8 15036.3 14360.9 15066.2 14360.9C15106.2 14360.9 15144.5 14376.7 15172.8 14404.9C15201.1 14433.1 15217.1 14471.3 15217.3 14511.3Z" fill="#263238"/>
<path d="M10061.4 14511.3C10061.4 14541 10052.6 14570.1 10036.1 14594.8C10019.6 14619.6 9996.08 14638.8 9968.6 14650.2C9941.11 14661.6 9910.87 14664.6 9881.7 14658.8C9852.52 14653 9825.73 14638.7 9804.69 14617.6C9783.66 14596.6 9769.33 14569.8 9763.53 14540.6C9757.73 14511.4 9760.71 14481.2 9772.09 14453.7C9783.47 14426.2 9802.75 14402.8 9827.48 14386.2C9852.22 14369.7 9881.29 14360.9 9911.04 14360.9C9950.93 14360.9 9989.18 14376.7 10017.4 14404.9C10045.6 14433.1 10061.4 14471.4 10061.4 14511.3Z" fill="#263238"/>
<path d="M13319 14511.3C13319 14541 13310.2 14570.1 13293.7 14594.8C13277.2 14619.6 13253.7 14638.8 13226.2 14650.2C13198.7 14661.6 13168.5 14664.6 13139.3 14658.8C13110.1 14653 13083.3 14638.7 13062.3 14617.6C13041.3 14596.6 13026.9 14569.8 13021.1 14540.6C13015.3 14511.4 13018.3 14481.2 13029.7 14453.7C13041.1 14426.2 13060.4 14402.8 13085.1 14386.2C13109.8 14369.7 13138.9 14360.9 13168.6 14360.9C13208.5 14360.9 13246.8 14376.7 13275 14404.9C13303.2 14433.1 13319 14471.4 13319 14511.3Z" fill="#263238"/>
<path d="M10722.6 14511.3C10722.7 14541.2 10713.9 14570.5 10697.4 14595.4C10680.8 14620.4 10657.2 14639.8 10629.6 14651.3C10602 14662.8 10571.6 14665.9 10542.2 14660.1C10512.9 14654.3 10485.9 14639.9 10464.7 14618.7C10443.6 14597.6 10429.2 14570.6 10423.4 14541.2C10417.5 14511.9 10420.6 14481.4 10432.1 14453.8C10443.6 14426.2 10463.1 14402.6 10488 14386.1C10512.9 14369.5 10542.2 14360.8 10572.2 14360.9C10612.1 14360.9 10650.3 14376.7 10678.5 14404.9C10706.7 14433.1 10722.6 14471.4 10722.6 14511.3Z" fill="#F5F5F5"/>
<path d="M11386.2 14511.3C11386.2 14541 11377.4 14570.1 11360.9 14594.8C11344.4 14619.6 11320.9 14638.8 11293.4 14650.2C11265.9 14661.6 11235.7 14664.6 11206.5 14658.8C11177.3 14653 11150.5 14638.7 11129.5 14617.6C11108.5 14596.6 11094.1 14569.8 11088.3 14540.6C11082.5 14511.4 11085.5 14481.2 11096.9 14453.7C11108.3 14426.2 11127.5 14402.8 11152.3 14386.2C11177 14369.7 11206.1 14360.9 11235.8 14360.9C11275.7 14360.9 11314 14376.7 11342.2 14404.9C11370.4 14433.1 11386.2 14471.4 11386.2 14511.3Z" fill="#F5F5F5"/>
<path d="M12733.4 14511.3C12733.4 14541 12724.6 14570.1 12708.1 14594.8C12691.6 14619.6 12668.1 14638.8 12640.6 14650.2C12613.1 14661.6 12582.9 14664.6 12553.7 14658.8C12524.5 14653 12497.7 14638.7 12476.7 14617.6C12455.7 14596.6 12441.3 14569.8 12435.5 14540.6C12429.7 14511.4 12432.7 14481.2 12444.1 14453.7C12455.5 14426.2 12474.8 14402.8 12499.5 14386.2C12524.2 14369.7 12553.3 14360.9 12583 14360.9C12622.9 14360.9 12661.2 14376.7 12689.4 14404.9C12717.6 14433.1 12733.4 14471.4 12733.4 14511.3Z" fill="#F5F5F5"/>
<path d="M15767.7 14511.3C15767.7 14541 15758.9 14570.1 15742.3 14594.8C15725.8 14619.6 15702.3 14638.8 15674.8 14650.2C15647.4 14661.6 15617.1 14664.6 15587.9 14658.8C15558.8 14653 15532 14638.7 15510.9 14617.6C15489.9 14596.6 15475.6 14569.8 15469.8 14540.6C15464 14511.4 15466.9 14481.2 15478.3 14453.7C15489.7 14426.2 15509 14402.8 15533.7 14386.2C15558.5 14369.7 15587.5 14360.9 15617.3 14360.9C15657.2 14360.9 15695.4 14376.7 15723.6 14404.9C15751.8 14433.1 15767.7 14471.4 15767.7 14511.3Z" fill="#F5F5F5"/>
<path d="M12050.6 14511.3C12050.7 14541.2 12041.9 14570.5 12025.4 14595.4C12008.8 14620.4 11985.2 14639.8 11957.6 14651.3C11930 14662.8 11899.6 14665.9 11870.2 14660.1C11840.9 14654.3 11813.9 14639.9 11792.7 14618.7C11771.6 14597.6 11757.2 14570.6 11751.4 14541.2C11745.5 14511.9 11748.6 14481.4 11760.1 14453.8C11771.6 14426.2 11791.1 14402.6 11816 14386.1C11840.9 14369.5 11870.2 14360.8 11900.2 14360.9C11940.1 14360.9 11978.3 14376.7 12006.5 14404.9C12034.7 14433.1 12050.6 14471.4 12050.6 14511.3Z" fill="url(#paint2_linear_49_2)"/>
<path d="M14000 14511.3C14000 14541 13991.2 14570.1 13974.7 14594.8C13958.1 14619.6 13934.6 14638.8 13907.2 14650.2C13879.7 14661.6 13849.4 14664.6 13820.3 14658.8C13791.1 14653 13764.3 14638.7 13743.3 14617.6C13722.2 14596.6 13707.9 14569.8 13702.1 14540.6C13696.3 14511.4 13699.3 14481.2 13710.7 14453.7C13722 14426.2 13741.3 14402.8 13766 14386.2C13790.8 14369.7 13819.9 14360.9 13849.6 14360.9C13889.5 14360.9 13927.7 14376.7 13956 14404.9C13984.2 14433.1 14000 14471.4 14000 14511.3Z" fill="url(#paint3_linear_49_2)"/>
<path d="M15466.9 15239C15466.9 15209.2 15475.7 15180.1 15492.2 15155.4C15508.8 15130.7 15532.2 15111.4 15559.7 15100C15587.2 15088.6 15617.4 15085.6 15646.6 15091.4C15675.8 15097.3 15702.6 15111.6 15723.6 15132.6C15744.7 15153.6 15759 15180.4 15764.8 15209.6C15770.6 15238.8 15767.6 15269 15756.2 15296.5C15744.8 15324 15725.6 15347.5 15700.8 15364C15676.1 15380.5 15647 15389.4 15617.3 15389.4C15577.4 15389.4 15539.1 15373.5 15510.9 15345.3C15482.7 15317.1 15466.9 15278.8 15466.9 15239Z" fill="#263238"/>
<path d="M14803.2 15239C14803.2 15209.2 14812 15180.1 14828.5 15155.4C14845.1 15130.7 14868.6 15111.4 14896 15100C14923.5 15088.6 14953.8 15085.6 14982.9 15091.4C15012.1 15097.3 15038.9 15111.6 15059.9 15132.6C15081 15153.6 15095.3 15180.4 15101.1 15209.6C15106.9 15238.8 15103.9 15269 15092.6 15296.5C15081.2 15324 15061.9 15347.5 15037.2 15364C15012.4 15380.5 14983.3 15389.4 14953.6 15389.4C14913.7 15389.4 14875.5 15373.5 14847.2 15345.3C14819 15317.1 14803.2 15278.8 14803.2 15239Z" fill="#263238"/>
<path d="M14138.9 15239C14138.9 15209.2 14147.7 15180.1 14164.2 15155.4C14180.8 15130.7 14204.2 15111.4 14231.7 15100C14259.2 15088.6 14289.5 15085.6 14318.6 15091.4C14347.8 15097.3 14374.6 15111.6 14395.6 15132.6C14416.7 15153.6 14431 15180.4 14436.8 15209.6C14442.6 15238.8 14439.6 15269 14428.2 15296.5C14416.9 15324 14397.6 15347.5 14372.8 15364C14348.1 15380.5 14319 15389.4 14289.3 15389.4C14269.5 15389.4 14250 15385.5 14231.7 15377.9C14213.5 15370.4 14196.9 15359.3 14182.9 15345.3C14169 15331.3 14157.9 15314.8 14150.3 15296.5C14142.8 15278.3 14138.9 15258.7 14138.9 15239Z" fill="#263238"/>
<path d="M13475.2 15239C13475.2 15209.2 13484 15180.1 13500.6 15155.4C13517.1 15130.7 13540.6 15111.4 13568 15100C13595.5 15088.6 13625.8 15085.6 13654.9 15091.4C13684.1 15097.3 13710.9 15111.6 13732 15132.6C13753 15153.6 13767.3 15180.4 13773.1 15209.6C13778.9 15238.8 13775.9 15269 13764.6 15296.5C13753.2 15324 13733.9 15347.5 13709.2 15364C13684.4 15380.5 13655.3 15389.4 13625.6 15389.4C13585.7 15389.4 13547.5 15373.5 13519.3 15345.3C13491 15317.1 13475.2 15278.8 13475.2 15239Z" fill="#263238"/>
<path d="M8329.6 15239C8329.6 15209.2 8338.42 15180.1 8354.95 15155.4C8371.47 15130.7 8394.96 15111.4 8422.45 15100C8449.93 15088.6 8480.17 15085.6 8509.34 15091.4C8538.52 15097.3 8565.32 15111.6 8586.35 15132.6C8607.38 15153.6 8621.71 15180.4 8627.51 15209.6C8633.31 15238.8 8630.34 15269 8618.95 15296.5C8607.57 15324 8588.29 15347.5 8563.56 15364C8538.83 15380.5 8509.75 15389.4 8480 15389.4C8440.11 15389.4 8401.86 15373.5 8373.65 15345.3C8345.45 15317.1 8329.6 15278.8 8329.6 15239Z" fill="#263238"/>
<path d="M7652.48 15239C7652.48 15209.2 7661.3 15180.1 7677.83 15155.4C7694.35 15130.7 7717.84 15111.4 7745.33 15100C7772.81 15088.6 7803.05 15085.6 7832.22 15091.4C7861.4 15097.3 7888.2 15111.6 7909.23 15132.6C7930.26 15153.6 7944.59 15180.4 7950.39 15209.6C7956.19 15238.8 7953.22 15269 7941.83 15296.5C7930.45 15324 7911.17 15347.5 7886.44 15364C7861.71 15380.5 7832.63 15389.4 7802.88 15389.4C7762.99 15389.4 7724.74 15373.5 7696.53 15345.3C7668.33 15317.1 7652.48 15278.8 7652.48 15239Z" fill="#263238"/>
<path d="M12813.4 15239C12813.4 15209.2 12822.3 15180.1 12838.8 15155.4C12855.3 15130.7 12878.8 15111.4 12906.3 15100C12933.8 15088.6 12964 15085.6 12993.2 15091.4C13022.4 15097.3 13049.2 15111.6 13070.2 15132.6C13091.2 15153.6 13105.5 15180.4 13111.4 15209.6C13117.2 15238.8 13114.2 15269 13102.8 15296.5C13091.4 15324 13072.1 15347.5 13047.4 15364C13022.7 15380.5 12993.6 15389.4 12963.8 15389.4C12944.1 15389.4 12924.5 15385.5 12906.3 15377.9C12888 15370.4 12871.5 15359.3 12857.5 15345.3C12843.5 15331.3 12832.4 15314.8 12824.9 15296.5C12817.3 15278.3 12813.4 15258.7 12813.4 15239Z" fill="#263238"/>
<path d="M9549.44 15239C9549.44 15209.2 9558.26 15180.1 9574.79 15155.4C9591.31 15130.7 9614.8 15111.4 9642.29 15100C9669.77 15088.6 9700.01 15085.6 9729.18 15091.4C9758.36 15097.3 9785.16 15111.6 9806.19 15132.6C9827.22 15153.6 9841.55 15180.4 9847.35 15209.6C9853.15 15238.8 9850.18 15269 9838.79 15296.5C9827.41 15324 9808.13 15347.5 9783.4 15364C9758.67 15380.5 9729.59 15389.4 9699.84 15389.4C9659.95 15389.4 9621.7 15373.5 9593.49 15345.3C9565.29 15317.1 9549.44 15278.8 9549.44 15239Z" fill="#263238"/>
<path d="M12147.2 15239C12147.2 15209.2 12156 15180.1 12172.6 15155.4C12189.1 15130.7 12212.6 15111.4 12240 15100C12267.5 15088.6 12297.8 15085.6 12326.9 15091.4C12356.1 15097.3 12382.9 15111.6 12404 15132.6C12425 15153.6 12439.3 15180.4 12445.1 15209.6C12450.9 15238.8 12447.9 15269 12436.6 15296.5C12425.2 15324 12405.9 15347.5 12381.2 15364C12356.4 15380.5 12327.3 15389.4 12297.6 15389.4C12257.7 15389.4 12219.5 15373.5 12191.3 15345.3C12163 15317.1 12147.2 15278.8 12147.2 15239Z" fill="#F5F5F5"/>
<path d="M11482.9 15239C11482.9 15209.2 11491.7 15180.1 11508.2 15155.4C11524.8 15130.7 11548.2 15111.4 11575.7 15100C11603.2 15088.6 11633.5 15085.6 11662.6 15091.4C11691.8 15097.3 11718.6 15111.6 11739.6 15132.6C11760.7 15153.6 11775 15180.4 11780.8 15209.6C11786.6 15238.8 11783.6 15269 11772.2 15296.5C11760.9 15324 11741.6 15347.5 11716.8 15364C11692.1 15380.5 11663 15389.4 11633.3 15389.4C11593.4 15389.4 11555.1 15373.5 11526.9 15345.3C11498.7 15317.1 11482.9 15278.8 11482.9 15239Z" fill="#F5F5F5"/>
<path d="M10135.7 15239C10135.7 15209.2 10144.5 15180.1 10161 15155.4C10177.6 15130.7 10201 15111.4 10228.5 15100C10256 15088.6 10286.2 15085.6 10315.4 15091.4C10344.6 15097.3 10371.4 15111.6 10392.4 15132.6C10413.5 15153.6 10427.8 15180.4 10433.6 15209.6C10439.4 15238.8 10436.4 15269 10425 15296.5C10413.6 15324 10394.4 15347.5 10369.6 15364C10344.9 15380.5 10315.8 15389.4 10286.1 15389.4C10246.2 15389.4 10207.9 15373.5 10179.7 15345.3C10151.5 15317.1 10135.7 15278.8 10135.7 15239Z" fill="#F5F5F5"/>
<path d="M7101.44 15239C7101.44 15209.2 7110.26 15180.1 7126.79 15155.4C7143.31 15130.7 7166.8 15111.4 7194.29 15100C7221.77 15088.6 7252.01 15085.6 7281.18 15091.4C7310.36 15097.3 7337.16 15111.6 7358.19 15132.6C7379.22 15153.6 7393.55 15180.4 7399.35 15209.6C7405.15 15238.8 7402.18 15269 7390.79 15296.5C7379.41 15324 7360.13 15347.5 7335.4 15364C7310.67 15380.5 7281.59 15389.4 7251.84 15389.4C7211.95 15389.4 7173.7 15373.5 7145.49 15345.3C7117.29 15317.1 7101.44 15278.8 7101.44 15239Z" fill="#F5F5F5"/>
<path d="M10818.6 15239C10818.4 15209.1 10827.2 15179.8 10843.7 15154.9C10860.2 15129.9 10883.8 15110.5 10911.4 15099C10938.9 15087.4 10969.3 15084.3 10998.7 15090.1C11028 15095.9 11055 15110.2 11076.2 15131.3C11097.4 15152.4 11111.8 15179.3 11117.7 15208.6C11123.6 15237.9 11120.6 15268.3 11109.2 15296C11097.8 15323.6 11078.4 15347.2 11053.6 15363.9C11028.7 15380.5 10999.5 15389.4 10969.6 15389.4C10929.7 15389.4 10891.3 15373.5 10863 15345.3C10834.7 15317.2 10818.7 15278.9 10818.6 15239Z" fill="url(#paint4_linear_49_2)"/>
<path d="M8917.76 15239C8917.76 15209.2 8926.58 15180.1 8943.11 15155.4C8959.63 15130.7 8983.12 15111.4 9010.61 15100C9038.09 15088.6 9068.33 15085.6 9097.5 15091.4C9126.68 15097.3 9153.48 15111.6 9174.51 15132.6C9195.54 15153.6 9209.87 15180.4 9215.67 15209.6C9221.48 15238.8 9218.5 15269 9207.11 15296.5C9195.73 15324 9176.45 15347.5 9151.72 15364C9126.99 15380.5 9097.91 15389.4 9068.16 15389.4C9028.27 15389.4 8990.02 15373.5 8961.81 15345.3C8933.61 15317.1 8917.76 15278.8 8917.76 15239Z" fill="url(#paint5_linear_49_2)"/>
<path d="M7402.24 15879C7402.24 15908.7 7393.42 15937.8 7376.89 15962.5C7360.37 15987.3 7336.88 16006.5 7309.4 16017.9C7281.92 16029.3 7251.68 16032.3 7222.5 16026.5C7193.33 16020.7 7166.53 16006.3 7145.49 15985.3C7124.46 15964.3 7110.13 15937.5 7104.33 15908.3C7098.53 15879.1 7101.51 15848.9 7112.89 15821.4C7124.27 15793.9 7143.55 15770.4 7168.28 15753.9C7193.02 15737.4 7222.1 15728.6 7251.84 15728.6C7291.73 15728.6 7329.99 15744.4 7358.19 15772.6C7386.4 15800.8 7402.24 15839.1 7402.24 15879Z" fill="#263238"/>
<path d="M7915.52 16031.9C7998.59 16031.9 8065.92 15964.6 8065.92 15881.5C8065.92 15798.5 7998.59 15731.1 7915.52 15731.1C7832.46 15731.1 7765.12 15798.5 7765.12 15881.5C7765.12 15964.6 7832.46 16031.9 7915.52 16031.9Z" fill="#263238"/>
<path d="M8579.84 16031.9C8662.91 16031.9 8730.24 15964.6 8730.24 15881.5C8730.24 15798.5 8662.91 15731.1 8579.84 15731.1C8496.78 15731.1 8429.44 15798.5 8429.44 15881.5C8429.44 15964.6 8496.78 16031.9 8579.84 16031.9Z" fill="#263238"/>
<path d="M9394.56 15879C9394.69 15908.9 9385.94 15938.1 9369.42 15963C9352.9 15988 9329.35 16007.4 9301.76 16019C9274.18 16030.5 9243.79 16033.6 9214.45 16027.8C9185.11 16022.1 9158.13 16007.7 9136.95 15986.6C9115.76 15965.5 9101.31 15938.6 9095.43 15909.3C9089.55 15880 9092.5 15849.6 9103.92 15821.9C9115.33 15794.3 9134.69 15770.7 9159.54 15754.1C9184.39 15737.4 9213.62 15728.6 9243.52 15728.6C9283.47 15728.6 9321.79 15744.4 9350.1 15772.6C9378.4 15800.8 9394.39 15839 9394.56 15879Z" fill="#263238"/>
<path d="M14389.1 16031.9C14472.2 16031.9 14539.5 15964.6 14539.5 15881.5C14539.5 15798.5 14472.2 15731.1 14389.1 15731.1C14306.1 15731.1 14238.7 15798.5 14238.7 15881.5C14238.7 15964.6 14306.1 16031.9 14389.1 16031.9Z" fill="#263238"/>
<path d="M15066.2 16031.9C15149.3 16031.9 15216.6 15964.6 15216.6 15881.5C15216.6 15798.5 15149.3 15731.1 15066.2 15731.1C14983.2 15731.1 14915.8 15798.5 14915.8 15881.5C14915.8 15964.6 14983.2 16031.9 15066.2 16031.9Z" fill="#263238"/>
<path d="M10061.4 15879C10061.4 15908.7 10052.6 15937.8 10036.1 15962.5C10019.6 15987.3 9996.08 16006.5 9968.6 16017.9C9941.11 16029.3 9910.87 16032.3 9881.7 16026.5C9852.52 16020.7 9825.73 16006.3 9804.69 15985.3C9783.66 15964.3 9769.33 15937.5 9763.53 15908.3C9757.73 15879.1 9760.71 15848.9 9772.09 15821.4C9783.47 15793.9 9802.75 15770.4 9827.48 15753.9C9852.22 15737.4 9881.29 15728.6 9911.04 15728.6C9950.93 15728.6 9989.18 15744.4 10017.4 15772.6C10045.6 15800.8 10061.4 15839.1 10061.4 15879Z" fill="#263238"/>
<path d="M13319 15879C13319 15908.7 13310.2 15937.8 13293.7 15962.5C13277.2 15987.3 13253.7 16006.5 13226.2 16017.9C13198.7 16029.3 13168.5 16032.3 13139.3 16026.5C13110.1 16020.7 13083.3 16006.3 13062.3 15985.3C13041.3 15964.3 13026.9 15937.5 13021.1 15908.3C13015.3 15879.1 13018.3 15848.9 13029.7 15821.4C13041.1 15793.9 13060.4 15770.4 13085.1 15753.9C13109.8 15737.4 13138.9 15728.6 13168.6 15728.6C13208.5 15728.6 13246.8 15744.4 13275 15772.6C13303.2 15800.8 13319 15839.1 13319 15879Z" fill="#263238"/>
<path d="M10572.2 16031.9C10655.2 16031.9 10722.6 15964.6 10722.6 15881.5C10722.6 15798.5 10655.2 15731.1 10572.2 15731.1C10489.1 15731.1 10421.8 15798.5 10421.8 15881.5C10421.8 15964.6 10489.1 16031.9 10572.2 16031.9Z" fill="#F5F5F5"/>
<path d="M11386.2 15879C11386.2 15908.7 11377.4 15937.8 11360.9 15962.5C11344.4 15987.3 11320.9 16006.5 11293.4 16017.9C11265.9 16029.3 11235.7 16032.3 11206.5 16026.5C11177.3 16020.7 11150.5 16006.3 11129.5 15985.3C11108.5 15964.3 11094.1 15937.5 11088.3 15908.3C11082.5 15879.1 11085.5 15848.9 11096.9 15821.4C11108.3 15793.9 11127.5 15770.4 11152.3 15753.9C11177 15737.4 11206.1 15728.6 11235.8 15728.6C11275.7 15728.6 11314 15744.4 11342.2 15772.6C11370.4 15800.8 11386.2 15839.1 11386.2 15879Z" fill="#F5F5F5"/>
<path d="M12733.4 15879C12733.4 15908.7 12724.6 15937.8 12708.1 15962.5C12691.6 15987.3 12668.1 16006.5 12640.6 16017.9C12613.1 16029.3 12582.9 16032.3 12553.7 16026.5C12524.5 16020.7 12497.7 16006.3 12476.7 15985.3C12455.7 15964.3 12441.3 15937.5 12435.5 15908.3C12429.7 15879.1 12432.7 15848.9 12444.1 15821.4C12455.5 15793.9 12474.8 15770.4 12499.5 15753.9C12524.2 15737.4 12553.3 15728.6 12583 15728.6C12622.9 15728.6 12661.2 15744.4 12689.4 15772.6C12717.6 15800.8 12733.4 15839.1 12733.4 15879Z" fill="#F5F5F5"/>
<path d="M15767.7 15879C15767.7 15908.7 15758.9 15937.8 15742.3 15962.5C15725.8 15987.3 15702.3 16006.5 15674.8 16017.9C15647.4 16029.3 15617.1 16032.3 15587.9 16026.5C15558.8 16020.7 15532 16006.3 15510.9 15985.3C15489.9 15964.3 15475.6 15937.5 15469.8 15908.3C15464 15879.1 15466.9 15848.9 15478.3 15821.4C15489.7 15793.9 15509 15770.4 15533.7 15753.9C15558.5 15737.4 15587.5 15728.6 15617.3 15728.6C15657.2 15728.6 15695.4 15744.4 15723.6 15772.6C15751.8 15800.8 15767.7 15839.1 15767.7 15879Z" fill="#F5F5F5"/>
<path d="M12050.6 15879C12050.7 15908.9 12041.9 15938.2 12025.4 15963.1C12008.8 15988 11985.2 16007.5 11957.6 16019C11930 16030.5 11899.6 16033.6 11870.2 16027.8C11840.9 16022 11813.9 16007.6 11792.7 15986.4C11771.6 15965.2 11757.2 15938.3 11751.4 15908.9C11745.5 15879.5 11748.6 15849.1 11760.1 15821.5C11771.6 15793.9 11791.1 15770.3 11816 15753.7C11840.9 15737.2 11870.2 15728.4 11900.2 15728.6C11940.1 15728.6 11978.3 15744.4 12006.5 15772.6C12034.7 15800.8 12050.6 15839.1 12050.6 15879Z" fill="url(#paint6_linear_49_2)"/>
<path d="M13801 16031.9C13884 16031.9 13951.4 15964.6 13951.4 15881.5C13951.4 15798.5 13884 15731.1 13801 15731.1C13717.9 15731.1 13650.6 15798.5 13650.6 15881.5C13650.6 15964.6 13717.9 16031.9 13801 16031.9Z" fill="url(#paint7_linear_49_2)"/>
<path d="M16472.3 17665.2H3150.08V20970.2H16472.3V17665.2Z" fill="#455A64"/>
<path d="M7368.96 18557.4C7368.83 18587.1 7359.9 18616.1 7343.3 18640.7C7326.7 18665.4 7303.17 18684.6 7275.67 18695.9C7248.18 18707.1 7217.96 18710 7188.83 18704.2C7159.69 18698.3 7132.96 18683.9 7111.99 18662.8C7091.02 18641.8 7076.76 18615 7071 18585.8C7065.25 18556.7 7068.27 18526.5 7079.67 18499C7091.07 18471.6 7110.35 18448.1 7135.07 18431.6C7159.79 18415.1 7188.84 18406.3 7218.56 18406.3C7238.36 18406.3 7257.97 18410.2 7276.26 18417.8C7294.55 18425.4 7311.16 18436.6 7325.13 18450.6C7339.11 18464.6 7350.17 18481.3 7357.7 18499.6C7365.22 18517.9 7369.04 18537.6 7368.96 18557.4Z" fill="#263238"/>
<path d="M8033.28 18557.4C8033.15 18587.1 8024.22 18616.1 8007.62 18640.7C7991.02 18665.4 7967.49 18684.6 7939.99 18695.9C7912.5 18707.1 7882.28 18710 7853.15 18704.2C7824.01 18698.3 7797.28 18683.9 7776.31 18662.8C7755.34 18641.8 7741.08 18615 7735.32 18585.8C7729.57 18556.7 7732.59 18526.5 7743.99 18499C7755.39 18471.6 7774.67 18448.1 7799.39 18431.6C7824.11 18415.1 7853.16 18406.3 7882.88 18406.3C7902.68 18406.3 7922.29 18410.2 7940.58 18417.8C7958.87 18425.4 7975.48 18436.6 7989.45 18450.6C8003.43 18464.6 8014.49 18481.3 8022.02 18499.6C8029.54 18517.9 8033.36 18537.6 8033.28 18557.4Z" fill="#263238"/>
<path d="M8696.96 18557.4C8696.83 18587.1 8687.9 18616.1 8671.3 18640.7C8654.7 18665.4 8631.17 18684.6 8603.67 18695.9C8576.18 18707.1 8545.96 18710 8516.83 18704.2C8487.69 18698.3 8460.96 18683.9 8439.99 18662.8C8419.02 18641.8 8404.76 18615 8399 18585.8C8393.25 18556.7 8396.27 18526.5 8407.67 18499C8419.07 18471.6 8438.35 18448.1 8463.07 18431.6C8487.79 18415.1 8516.84 18406.3 8546.56 18406.3C8566.36 18406.3 8585.97 18410.2 8604.26 18417.8C8622.55 18425.4 8639.16 18436.6 8653.13 18450.6C8667.11 18464.6 8678.17 18481.3 8685.7 18499.6C8693.22 18517.9 8697.04 18537.6 8696.96 18557.4Z" fill="#263238"/>
<path d="M9361.28 18557.4C9361.15 18587.1 9352.22 18616.1 9335.62 18640.7C9319.02 18665.4 9295.49 18684.6 9267.99 18695.9C9240.5 18707.1 9210.28 18710 9181.15 18704.2C9152.01 18698.3 9125.28 18683.9 9104.31 18662.8C9083.34 18641.8 9069.08 18615 9063.32 18585.8C9057.57 18556.7 9060.59 18526.5 9071.99 18499C9083.39 18471.6 9102.67 18448.1 9127.39 18431.6C9152.11 18415.1 9181.16 18406.3 9210.88 18406.3C9230.68 18406.3 9250.29 18410.2 9268.58 18417.8C9286.87 18425.4 9303.48 18436.6 9317.45 18450.6C9331.43 18464.6 9342.49 18481.3 9350.02 18499.6C9357.54 18517.9 9361.36 18537.6 9361.28 18557.4Z" fill="#263238"/>
<path d="M14506.9 18557.4C14506.8 18587.1 14497.8 18616.1 14481.2 18640.7C14464.6 18665.4 14441.1 18684.6 14413.6 18695.9C14386.1 18707.1 14355.9 18710 14326.7 18704.2C14297.6 18698.3 14270.9 18683.9 14249.9 18662.8C14228.9 18641.8 14214.7 18615 14208.9 18585.8C14203.2 18556.7 14206.2 18526.5 14217.6 18499C14229 18471.6 14248.3 18448.1 14273 18431.6C14297.7 18415.1 14326.8 18406.3 14356.5 18406.3C14376.3 18406.3 14395.9 18410.2 14414.2 18417.8C14432.5 18425.4 14449.1 18436.6 14463.1 18450.6C14477 18464.6 14488.1 18481.3 14495.6 18499.6C14503.1 18517.9 14507 18537.6 14506.9 18557.4Z" fill="#263238"/>
<path d="M15181.4 18557.4C15181.3 18587.1 15172.4 18616.1 15155.8 18640.7C15139.2 18665.4 15115.6 18684.6 15088.2 18695.9C15060.7 18707.1 15030.4 18710 15001.3 18704.2C14972.2 18698.3 14945.4 18683.9 14924.5 18662.8C14903.5 18641.8 14889.2 18615 14883.5 18585.8C14877.7 18556.7 14880.7 18526.5 14892.2 18499C14903.6 18471.6 14922.8 18448.1 14947.5 18431.6C14972.3 18415.1 15001.3 18406.3 15031 18406.3C15050.8 18406.3 15070.5 18410.2 15088.7 18417.8C15107 18425.4 15123.6 18436.6 15137.6 18450.6C15151.6 18464.6 15162.7 18481.3 15170.2 18499.6C15177.7 18517.9 15181.5 18537.6 15181.4 18557.4Z" fill="#263238"/>
<path d="M10025.6 18557.4C10025.6 18587.2 10016.7 18616.4 10000.1 18641.3C9983.55 18666.1 9959.96 18685.5 9932.36 18696.9C9904.77 18708.3 9874.4 18711.3 9845.1 18705.5C9815.8 18699.7 9788.89 18685.3 9767.76 18664.2C9746.64 18643 9732.25 18616.1 9726.43 18586.8C9720.6 18557.5 9723.59 18527.2 9735.02 18499.6C9746.45 18472 9765.81 18448.4 9790.65 18431.8C9815.49 18415.2 9844.69 18406.3 9874.56 18406.3C9894.4 18406.3 9914.04 18410.2 9932.36 18417.8C9950.69 18425.4 9967.34 18436.5 9981.37 18450.6C9995.39 18464.6 10006.5 18481.2 10014.1 18499.6C10021.7 18517.9 10025.6 18537.5 10025.6 18557.4Z" fill="#263238"/>
<path d="M13286.4 18557.4C13286.3 18587.1 13277.3 18616.1 13260.7 18640.7C13244.1 18665.4 13220.6 18684.6 13193.1 18695.9C13165.6 18707.1 13135.4 18710 13106.3 18704.2C13077.1 18698.3 13050.4 18683.9 13029.4 18662.8C13008.5 18641.8 12994.2 18615 12988.4 18585.8C12982.7 18556.7 12985.7 18526.5 12997.1 18499C13008.5 18471.6 13027.8 18448.1 13052.5 18431.6C13077.2 18415.1 13106.3 18406.3 13136 18406.3C13155.8 18406.3 13175.4 18410.2 13193.7 18417.8C13212 18425.4 13228.6 18436.6 13242.6 18450.6C13256.6 18464.6 13267.6 18481.3 13275.1 18499.6C13282.7 18517.9 13286.5 18537.6 13286.4 18557.4Z" fill="#263238"/>
<path d="M10689.3 18557.4C10689.2 18587.1 10680.2 18616.1 10663.6 18640.7C10647 18665.4 10623.5 18684.6 10596 18695.9C10568.5 18707.1 10538.3 18710 10509.2 18704.2C10480 18698.3 10453.3 18683.9 10432.3 18662.8C10411.3 18641.8 10397.1 18615 10391.3 18585.8C10385.6 18556.7 10388.6 18526.5 10400 18499C10411.4 18471.6 10430.7 18448.1 10455.4 18431.6C10480.1 18415.1 10509.2 18406.3 10538.9 18406.3C10558.7 18406.3 10578.3 18410.2 10596.6 18417.8C10614.9 18425.4 10631.5 18436.6 10645.5 18450.6C10659.4 18464.6 10670.5 18481.3 10678 18499.6C10685.5 18517.9 10689.4 18537.6 10689.3 18557.4Z" fill="#F5F5F5"/>
<path d="M11353.6 18557.4C11353.6 18587.3 11344.7 18616.5 11328.1 18641.3C11311.5 18666.2 11287.9 18685.5 11260.2 18697C11232.6 18708.4 11202.2 18711.3 11172.9 18705.4C11143.5 18699.6 11116.6 18685.1 11095.5 18663.9C11074.4 18642.7 11060.1 18615.8 11054.3 18586.4C11048.6 18557.1 11051.7 18526.7 11063.2 18499.1C11074.7 18471.5 11094.2 18448 11119.1 18431.5C11144 18414.9 11173.3 18406.2 11203.2 18406.3C11243.2 18406.5 11281.4 18422.5 11309.6 18450.8C11337.8 18479.1 11353.6 18517.4 11353.6 18557.4Z" fill="#F5F5F5"/>
<path d="M12700.8 18557.4C12700.8 18587.3 12691.9 18616.5 12675.3 18641.3C12658.7 18666.2 12635.1 18685.5 12607.4 18697C12579.8 18708.4 12549.4 18711.3 12520.1 18705.4C12490.7 18699.6 12463.8 18685.1 12442.7 18663.9C12421.6 18642.7 12407.3 18615.8 12401.5 18586.4C12395.8 18557.1 12398.9 18526.7 12410.4 18499.1C12421.9 18471.5 12441.4 18448 12466.3 18431.5C12491.2 18414.9 12520.5 18406.2 12550.4 18406.3C12590.4 18406.5 12628.6 18422.5 12656.8 18450.8C12685 18479.1 12700.8 18517.4 12700.8 18557.4Z" fill="#F5F5F5"/>
<path d="M15735 18557.4C15734.9 18587.1 15726 18616.1 15709.4 18640.7C15692.8 18665.4 15669.2 18684.6 15641.8 18695.9C15614.3 18707.1 15584 18710 15554.9 18704.2C15525.8 18698.3 15499 18683.9 15478.1 18662.8C15457.1 18641.8 15442.8 18615 15437.1 18585.8C15431.3 18556.7 15434.3 18526.5 15445.8 18499C15457.2 18471.6 15476.4 18448.1 15501.2 18431.6C15525.9 18415.1 15554.9 18406.3 15584.6 18406.3C15604.4 18406.3 15624.1 18410.2 15642.3 18417.8C15660.6 18425.4 15677.2 18436.6 15691.2 18450.6C15705.2 18464.6 15716.3 18481.3 15723.8 18499.6C15731.3 18517.9 15735.1 18537.6 15735 18557.4Z" fill="#F5F5F5"/>
<path d="M12017.3 18557.4C12017.2 18587.1 12008.2 18616.1 11991.6 18640.7C11975 18665.4 11951.5 18684.6 11924 18695.9C11896.5 18707.1 11866.3 18710 11837.2 18704.2C11808 18698.3 11781.3 18683.9 11760.3 18662.8C11739.3 18641.8 11725.1 18615 11719.3 18585.8C11713.6 18556.7 11716.6 18526.5 11728 18499C11739.4 18471.6 11758.7 18448.1 11783.4 18431.6C11808.1 18415.1 11837.2 18406.3 11866.9 18406.3C11886.7 18406.3 11906.3 18410.2 11924.6 18417.8C11942.9 18425.4 11959.5 18436.6 11973.5 18450.6C11987.4 18464.6 11998.5 18481.3 12006 18499.6C12013.5 18517.9 12017.4 18537.6 12017.3 18557.4Z" fill="url(#paint8_linear_49_2)"/>
<path d="M13918.7 18557.4C13918.6 18587.1 13909.7 18616.1 13893.1 18640.7C13876.5 18665.4 13852.9 18684.6 13825.4 18695.9C13797.9 18707.1 13767.7 18710 13738.6 18704.2C13709.5 18698.3 13682.7 18683.9 13661.7 18662.8C13640.8 18641.8 13626.5 18615 13620.8 18585.8C13615 18556.7 13618 18526.5 13629.4 18499C13640.8 18471.6 13660.1 18448.1 13684.8 18431.6C13709.5 18415.1 13738.6 18406.3 13768.3 18406.3C13788.1 18406.3 13807.7 18410.2 13826 18417.8C13844.3 18425.4 13860.9 18436.6 13874.9 18450.6C13888.9 18464.6 13899.9 18481.3 13907.5 18499.6C13915 18517.9 13918.8 18537.6 13918.7 18557.4Z" fill="url(#paint9_linear_49_2)"/>
<path d="M15437.4 19282.5C15437.4 19252.7 15446.3 19223.7 15462.8 19198.9C15479.3 19174.2 15502.8 19154.9 15530.3 19143.5C15557.8 19132.1 15588 19129.2 15617.2 19135C15646.4 19140.8 15673.2 19155.1 15694.2 19176.1C15715.2 19197.2 15729.5 19224 15735.3 19253.1C15741.2 19282.3 15738.2 19312.6 15726.8 19340C15715.4 19367.5 15696.1 19391 15671.4 19407.5C15646.7 19424.1 15617.6 19432.9 15587.8 19432.9C15547.9 19432.9 15509.7 19417 15481.5 19388.8C15453.3 19360.6 15437.4 19322.4 15437.4 19282.5Z" fill="#263238"/>
<path d="M14920.3 19432.9C15003.4 19432.9 15070.7 19365.5 15070.7 19282.5C15070.7 19199.4 15003.4 19132.1 14920.3 19132.1C14837.3 19132.1 14769.9 19199.4 14769.9 19282.5C14769.9 19365.5 14837.3 19432.9 14920.3 19432.9Z" fill="#263238"/>
<path d="M14106.2 19282.5C14106.2 19252.7 14115.1 19223.7 14131.6 19198.9C14148.1 19174.2 14171.6 19154.9 14199.1 19143.5C14226.6 19132.1 14256.8 19129.2 14286 19135C14315.2 19140.8 14342 19155.1 14363 19176.1C14384 19197.2 14398.3 19224 14404.2 19253.1C14410 19282.3 14407 19312.6 14395.6 19340C14384.2 19367.5 14364.9 19391 14340.2 19407.5C14315.5 19424.1 14286.4 19432.9 14256.6 19432.9C14236.9 19432.9 14217.3 19429 14199.1 19421.4C14180.8 19413.9 14164.3 19402.8 14150.3 19388.8C14136.3 19374.9 14125.2 19358.3 14117.7 19340C14110.1 19321.8 14106.2 19302.2 14106.2 19282.5Z" fill="#263238"/>
<path d="M13441.9 19282.5C13441.9 19252.7 13450.7 19223.7 13467.3 19198.9C13483.8 19174.2 13507.3 19154.9 13534.8 19143.5C13562.2 19132.1 13592.5 19129.2 13621.7 19135C13650.8 19140.8 13677.6 19155.1 13698.7 19176.1C13719.7 19197.2 13734 19224 13739.8 19253.1C13745.6 19282.3 13742.7 19312.6 13731.3 19340C13719.9 19367.5 13700.6 19391 13675.9 19407.5C13651.1 19424.1 13622.1 19432.9 13592.3 19432.9C13552.4 19432.9 13514.2 19417 13486 19388.8C13457.8 19360.6 13441.9 19322.4 13441.9 19282.5Z" fill="#263238"/>
<path d="M8296.32 19282.5C8296.32 19252.7 8305.14 19223.7 8321.67 19198.9C8338.19 19174.2 8361.68 19154.9 8389.17 19143.5C8416.65 19132.1 8446.89 19129.2 8476.06 19135C8505.24 19140.8 8532.04 19155.1 8553.07 19176.1C8574.1 19197.2 8588.43 19224 8594.23 19253.1C8600.03 19282.3 8597.06 19312.6 8585.67 19340C8574.29 19367.5 8555.01 19391 8530.28 19407.5C8505.55 19424.1 8476.47 19432.9 8446.72 19432.9C8406.83 19432.9 8368.58 19417 8340.37 19388.8C8312.17 19360.6 8296.32 19322.4 8296.32 19282.5Z" fill="#263238"/>
<path d="M7619.2 19282.5C7619.2 19252.7 7628.02 19223.7 7644.55 19198.9C7661.07 19174.2 7684.56 19154.9 7712.04 19143.5C7739.53 19132.1 7769.77 19129.2 7798.94 19135C7828.12 19140.8 7854.91 19155.1 7875.95 19176.1C7896.98 19197.2 7911.31 19224 7917.11 19253.1C7922.91 19282.3 7919.93 19312.6 7908.55 19340C7897.17 19367.5 7877.89 19391 7853.16 19407.5C7828.42 19424.1 7799.35 19432.9 7769.6 19432.9C7729.71 19432.9 7691.46 19417 7663.25 19388.8C7635.05 19360.6 7619.2 19322.4 7619.2 19282.5Z" fill="#263238"/>
<path d="M12928.6 19432.9C13011.7 19432.9 13079 19365.5 13079 19282.5C13079 19199.4 13011.7 19132.1 12928.6 19132.1C12845.6 19132.1 12778.2 19199.4 12778.2 19282.5C12778.2 19365.5 12845.6 19432.9 12928.6 19432.9Z" fill="#263238"/>
<path d="M9516.8 19282.5C9516.8 19252.7 9525.62 19223.7 9542.15 19198.9C9558.67 19174.2 9582.16 19154.9 9609.64 19143.5C9637.13 19132.1 9667.37 19129.2 9696.54 19135C9725.72 19140.8 9752.52 19155.1 9773.55 19176.1C9794.58 19197.2 9808.91 19224 9814.71 19253.1C9820.51 19282.3 9817.54 19312.6 9806.15 19340C9794.77 19367.5 9775.49 19391 9750.76 19407.5C9726.02 19424.1 9696.95 19432.9 9667.2 19432.9C9627.31 19432.9 9589.06 19417 9560.85 19388.8C9532.65 19360.6 9516.8 19322.4 9516.8 19282.5Z" fill="#263238"/>
<path d="M12113.9 19282.5C12113.9 19252.7 12122.7 19223.7 12139.3 19198.9C12155.8 19174.2 12179.3 19154.9 12206.8 19143.5C12234.2 19132.1 12264.5 19129.2 12293.7 19135C12322.8 19140.8 12349.6 19155.1 12370.7 19176.1C12391.7 19197.2 12406 19224 12411.8 19253.1C12417.6 19282.3 12414.7 19312.6 12403.3 19340C12391.9 19367.5 12372.6 19391 12347.9 19407.5C12323.1 19424.1 12294.1 19432.9 12264.3 19432.9C12244.6 19432.9 12225 19429 12206.8 19421.4C12188.5 19413.9 12171.9 19402.8 12158 19388.8C12144 19374.9 12132.9 19358.3 12125.4 19340C12117.8 19321.8 12113.9 19302.2 12113.9 19282.5Z" fill="#F5F5F5"/>
<path d="M11449.6 19282.5C11449.5 19252.6 11458.2 19223.3 11474.7 19198.4C11491.3 19173.5 11514.8 19154 11542.4 19142.5C11570 19131 11600.4 19127.9 11629.7 19133.6C11659.1 19139.4 11686 19153.7 11707.2 19174.8C11728.4 19195.9 11742.9 19222.8 11748.7 19252.1C11754.6 19281.5 11751.7 19311.9 11740.2 19339.5C11728.8 19367.1 11709.5 19390.8 11684.6 19407.4C11659.8 19424 11630.5 19432.9 11600.6 19432.9C11560.7 19432.9 11522.4 19417.1 11494.1 19388.9C11465.8 19360.7 11449.8 19322.4 11449.6 19282.5Z" fill="#F5F5F5"/>
<path d="M10253.4 19432.9C10336.5 19432.9 10403.8 19365.5 10403.8 19282.5C10403.8 19199.4 10336.5 19132.1 10253.4 19132.1C10170.4 19132.1 10103 19199.4 10103 19282.5C10103 19365.5 10170.4 19432.9 10253.4 19432.9Z" fill="#F5F5F5"/>
<path d="M7068.16 19282.5C7068.16 19252.7 7076.98 19223.7 7093.51 19198.9C7110.03 19174.2 7133.52 19154.9 7161 19143.5C7188.49 19132.1 7218.73 19129.2 7247.9 19135C7277.08 19140.8 7303.88 19155.1 7324.91 19176.1C7345.94 19197.2 7360.27 19224 7366.07 19253.1C7371.87 19282.3 7368.9 19312.6 7357.51 19340C7346.13 19367.5 7326.85 19391 7302.12 19407.5C7277.39 19424.1 7248.31 19432.9 7218.56 19432.9C7178.67 19432.9 7140.42 19417 7112.21 19388.8C7084.01 19360.6 7068.16 19322.4 7068.16 19282.5Z" fill="#F5F5F5"/>
<path d="M10785.9 19282.5C10785.9 19252.7 10794.7 19223.7 10811.3 19198.9C10827.8 19174.2 10851.3 19154.9 10878.8 19143.5C10906.2 19132.1 10936.5 19129.2 10965.7 19135C10994.8 19140.8 11021.6 19155.1 11042.7 19176.1C11063.7 19197.2 11078 19224 11083.8 19253.1C11089.6 19282.3 11086.7 19312.6 11075.3 19340C11063.9 19367.5 11044.6 19391 11019.9 19407.5C10995.1 19424.1 10966.1 19432.9 10936.3 19432.9C10916.6 19432.9 10897 19429 10878.8 19421.4C10860.5 19413.9 10843.9 19402.8 10830 19388.8C10816 19374.9 10804.9 19358.3 10797.4 19340C10789.8 19321.8 10785.9 19302.2 10785.9 19282.5Z" fill="url(#paint10_linear_49_2)"/>
<path d="M8884.48 19282.5C8884.48 19252.7 8893.3 19223.7 8909.83 19198.9C8926.35 19174.2 8949.84 19154.9 8977.33 19143.5C9004.81 19132.1 9035.05 19129.2 9064.22 19135C9093.4 19140.8 9120.2 19155.1 9141.23 19176.1C9162.26 19197.2 9176.59 19224 9182.39 19253.1C9188.19 19282.3 9185.22 19312.6 9173.83 19340C9162.45 19367.5 9143.17 19391 9118.44 19407.5C9093.71 19424.1 9064.63 19432.9 9034.88 19432.9C8994.99 19432.9 8956.74 19417 8928.53 19388.8C8900.33 19360.6 8884.48 19322.4 8884.48 19282.5Z" fill="url(#paint11_linear_49_2)"/>
<path d="M7368.96 19927.6C7368.96 19957.3 7360.14 19986.4 7343.61 20011.2C7327.09 20035.9 7303.6 20055.2 7276.12 20066.6C7248.63 20077.9 7218.39 20080.9 7189.22 20075.1C7160.04 20069.3 7133.25 20055 7112.21 20033.9C7091.18 20012.9 7076.85 19986.1 7071.05 19956.9C7065.25 19927.8 7068.23 19897.5 7079.61 19870C7090.99 19842.6 7110.27 19819.1 7135 19802.5C7159.74 19786 7188.81 19777.2 7218.56 19777.2C7258.45 19777.2 7296.7 19793 7324.91 19821.2C7353.11 19849.5 7368.96 19887.7 7368.96 19927.6Z" fill="#263238"/>
<path d="M8033.28 19927.6C8033.28 19957.3 8024.46 19986.4 8007.93 20011.2C7991.41 20035.9 7967.92 20055.2 7940.44 20066.6C7912.95 20077.9 7882.71 20080.9 7853.54 20075.1C7824.36 20069.3 7797.57 20055 7776.53 20033.9C7755.5 20012.9 7741.17 19986.1 7735.37 19956.9C7729.57 19927.8 7732.55 19897.5 7743.93 19870C7755.31 19842.6 7774.59 19819.1 7799.32 19802.5C7824.06 19786 7853.13 19777.2 7882.88 19777.2C7922.77 19777.2 7961.02 19793 7989.23 19821.2C8017.44 19849.5 8033.28 19887.7 8033.28 19927.6Z" fill="#263238"/>
<path d="M8696.96 19927.6C8696.96 19957.3 8688.14 19986.4 8671.61 20011.2C8655.09 20035.9 8631.6 20055.2 8604.12 20066.6C8576.63 20077.9 8546.39 20080.9 8517.22 20075.1C8488.04 20069.3 8461.25 20055 8440.21 20033.9C8419.18 20012.9 8404.85 19986.1 8399.05 19956.9C8393.25 19927.8 8396.23 19897.5 8407.61 19870C8418.99 19842.6 8438.27 19819.1 8463 19802.5C8487.74 19786 8516.81 19777.2 8546.56 19777.2C8586.45 19777.2 8624.7 19793 8652.91 19821.2C8681.11 19849.5 8696.96 19887.7 8696.96 19927.6Z" fill="#263238"/>
<path d="M9361.28 19927.6C9361.28 19957.3 9352.46 19986.4 9335.93 20011.2C9319.41 20035.9 9295.92 20055.2 9268.44 20066.6C9240.95 20077.9 9210.71 20080.9 9181.54 20075.1C9152.36 20069.3 9125.57 20055 9104.53 20033.9C9083.5 20012.9 9069.17 19986.1 9063.37 19956.9C9057.57 19927.8 9060.55 19897.5 9071.93 19870C9083.31 19842.6 9102.59 19819.1 9127.32 19802.5C9152.06 19786 9181.13 19777.2 9210.88 19777.2C9250.77 19777.2 9289.02 19793 9317.23 19821.2C9345.44 19849.5 9361.28 19887.7 9361.28 19927.6Z" fill="#263238"/>
<path d="M14506.9 19927.6C14506.9 19957.3 14498.1 19986.4 14481.5 20011.2C14465 20035.9 14441.5 20055.2 14414 20066.6C14386.6 20077.9 14356.3 20080.9 14327.1 20075.1C14298 20069.3 14271.2 20055 14250.1 20033.9C14229.1 20012.9 14214.8 19986.1 14209 19956.9C14203.2 19927.8 14206.1 19897.5 14217.5 19870C14228.9 19842.6 14248.2 19819.1 14272.9 19802.5C14297.7 19786 14326.7 19777.2 14356.5 19777.2C14396.4 19777.2 14434.6 19793 14462.8 19821.2C14491 19849.5 14506.9 19887.7 14506.9 19927.6Z" fill="#263238"/>
<path d="M15181.4 19927.6C15181.4 19957.3 15172.6 19986.4 15156.1 20011.2C15139.6 20035.9 15116.1 20055.2 15088.6 20066.6C15061.1 20077.9 15030.9 20080.9 15001.7 20075.1C14972.5 20069.3 14945.7 20055 14924.7 20033.9C14903.7 20012.9 14889.3 19986.1 14883.5 19956.9C14877.7 19927.8 14880.7 19897.5 14892.1 19870C14903.5 19842.6 14922.8 19819.1 14947.5 19802.5C14972.2 19786 15001.3 19777.2 15031 19777.2C15070.9 19777.2 15109.2 19793 15137.4 19821.2C15165.6 19849.5 15181.4 19887.7 15181.4 19927.6Z" fill="#263238"/>
<path d="M10025.6 19927.6C10025.7 19957.5 10017 19986.8 10000.5 20011.7C9983.94 20036.6 9960.4 20056.1 9932.81 20067.6C9905.22 20079.1 9874.83 20082.2 9845.49 20076.5C9816.15 20070.7 9789.18 20056.4 9767.99 20035.3C9746.8 20014.2 9732.35 19987.3 9726.47 19957.9C9720.59 19928.6 9723.55 19898.2 9734.96 19870.6C9746.37 19843 9765.73 19819.3 9790.58 19802.7C9815.44 19786.1 9844.66 19777.2 9874.56 19777.2C9914.51 19777.2 9952.83 19793 9981.14 19821.2C10009.4 19849.4 10025.4 19887.7 10025.6 19927.6Z" fill="#263238"/>
<path d="M13286.4 19927.6C13286.4 19957.3 13277.6 19986.4 13261.1 20011.2C13244.5 20035.9 13221 20055.2 13193.6 20066.6C13166.1 20077.9 13135.8 20080.9 13106.7 20075.1C13077.5 20069.3 13050.7 20055 13029.7 20033.9C13008.6 20012.9 12994.3 19986.1 12988.5 19956.9C12982.7 19927.8 12985.7 19897.5 12997.1 19870C13008.4 19842.6 13027.7 19819.1 13052.4 19802.5C13077.2 19786 13106.3 19777.2 13136 19777.2C13175.9 19777.2 13214.1 19793 13242.3 19821.2C13270.6 19849.5 13286.4 19887.7 13286.4 19927.6Z" fill="#263238"/>
<path d="M10689.3 19927.6C10689.3 19957.3 10680.5 19986.4 10663.9 20011.2C10647.4 20035.9 10623.9 20055.2 10596.4 20066.6C10569 20077.9 10538.7 20080.9 10509.5 20075.1C10480.4 20069.3 10453.6 20055 10432.5 20033.9C10411.5 20012.9 10397.2 19986.1 10391.4 19956.9C10385.6 19927.8 10388.5 19897.5 10399.9 19870C10411.3 19842.6 10430.6 19819.1 10455.3 19802.5C10480.1 19786 10509.1 19777.2 10538.9 19777.2C10558.6 19777.2 10578.2 19781.1 10596.4 19788.6C10614.7 19796.2 10631.3 19807.3 10645.2 19821.2C10659.2 19835.2 10670.3 19851.8 10677.8 19870C10685.4 19888.3 10689.3 19907.8 10689.3 19927.6Z" fill="#F5F5F5"/>
<path d="M11353.6 19927.6C11353.7 19957.5 11345 19986.8 11328.4 20011.8C11311.9 20036.7 11288.3 20056.1 11260.7 20067.7C11233 20079.2 11202.6 20082.2 11173.3 20076.4C11143.9 20070.6 11116.9 20056.2 11095.8 20035C11074.6 20013.9 11060.2 19986.9 11054.4 19957.5C11048.6 19928.2 11051.6 19897.8 11063.1 19870.1C11074.7 19842.5 11094.1 19818.9 11119 19802.4C11144 19785.8 11173.3 19777.1 11203.2 19777.2C11243.1 19777.2 11281.3 19793 11309.6 19821.2C11337.8 19849.5 11353.6 19887.7 11353.6 19927.6Z" fill="#F5F5F5"/>
<path d="M12700.8 19927.6C12700.9 19957.5 12692.2 19986.8 12675.6 20011.8C12659.1 20036.7 12635.5 20056.1 12607.9 20067.7C12580.2 20079.2 12549.8 20082.2 12520.5 20076.4C12491.1 20070.6 12464.1 20056.2 12443 20035C12421.8 20013.9 12407.4 19986.9 12401.6 19957.5C12395.8 19928.2 12398.8 19897.8 12410.3 19870.1C12421.9 19842.5 12441.3 19818.9 12466.2 19802.4C12491.2 19785.8 12520.5 19777.1 12550.4 19777.2C12590.3 19777.2 12628.5 19793 12656.8 19821.2C12685 19849.5 12700.8 19887.7 12700.8 19927.6Z" fill="#F5F5F5"/>
<path d="M15735 19927.6C15735 19957.3 15726.2 19986.4 15709.7 20011.2C15693.2 20035.9 15669.7 20055.2 15642.2 20066.6C15614.7 20077.9 15584.5 20080.9 15555.3 20075.1C15526.1 20069.3 15499.3 20055 15478.3 20033.9C15457.3 20012.9 15442.9 19986.1 15437.1 19956.9C15431.3 19927.8 15434.3 19897.5 15445.7 19870C15457.1 19842.6 15476.3 19819.1 15501.1 19802.5C15525.8 19786 15554.9 19777.2 15584.6 19777.2C15624.5 19777.2 15662.8 19793 15691 19821.2C15719.2 19849.5 15735 19887.7 15735 19927.6Z" fill="#F5F5F5"/>
<path d="M12017.3 19927.6C12017.3 19957.3 12008.5 19986.4 11991.9 20011.2C11975.4 20035.9 11951.9 20055.2 11924.4 20066.6C11897 20077.9 11866.7 20080.9 11837.5 20075.1C11808.4 20069.3 11781.6 20055 11760.5 20033.9C11739.5 20012.9 11725.2 19986.1 11719.4 19956.9C11713.6 19927.8 11716.5 19897.5 11727.9 19870C11739.3 19842.6 11758.6 19819.1 11783.3 19802.5C11808.1 19786 11837.1 19777.2 11866.9 19777.2C11886.6 19777.2 11906.2 19781.1 11924.4 19788.6C11942.7 19796.2 11959.3 19807.3 11973.2 19821.2C11987.2 19835.2 11998.3 19851.8 12005.8 19870C12013.4 19888.3 12017.3 19907.8 12017.3 19927.6Z" fill="url(#paint12_linear_49_2)"/>
<path d="M13918.7 19927.6C13918.7 19957.3 13909.9 19986.4 13893.4 20011.2C13876.9 20035.9 13853.4 20055.2 13825.9 20066.6C13798.4 20077.9 13768.2 20080.9 13739 20075.1C13709.8 20069.3 13683 20055 13662 20033.9C13640.9 20012.9 13626.6 19986.1 13620.8 19956.9C13615 19927.8 13618 19897.5 13629.4 19870C13640.8 19842.6 13660 19819.1 13684.8 19802.5C13709.5 19786 13738.6 19777.2 13768.3 19777.2C13808.2 19777.2 13846.5 19793 13874.7 19821.2C13902.9 19849.5 13918.7 19887.7 13918.7 19927.6Z" fill="url(#paint13_linear_49_2)"/>
<path d="M6365.44 18346.2H3742.08V18750H6365.44V18346.2Z" fill="#263238"/>
<path d="M6365.44 19040.6H3742.08V19444.4H6365.44V19040.6Z" fill="#263238"/>
<path d="M6365.44 19758.6H3742.08V20162.5H6365.44V19758.6Z" fill="#263238"/>
<path d="M6461.44 11630.6H3838.08V12034.5H6461.44V11630.6Z" fill="#263238"/>
<path d="M16569 9537.2H3246.72V12842.2H16569V9537.2Z" fill="#455A64"/>
<path d="M6461.44 10218.2H3838.08V10622H6461.44V10218.2Z" fill="#263238"/>
<path d="M6461.44 10912.6H3838.08V11316.4H6461.44V10912.6Z" fill="#263238"/>
<path d="M7501.44 10462C7501.57 10491.9 7492.8 10521.2 7476.25 10546.2C7459.71 10571.1 7436.12 10590.5 7408.5 10602.1C7380.87 10613.6 7350.45 10616.6 7321.09 10610.8C7291.74 10605 7264.76 10590.6 7243.6 10569.4C7222.44 10548.3 7208.04 10521.3 7202.23 10491.9C7196.43 10462.6 7199.47 10432.2 7210.98 10404.5C7222.49 10376.9 7241.95 10353.3 7266.89 10336.8C7291.82 10320.2 7321.11 10311.5 7351.04 10311.6C7390.93 10311.6 7429.19 10327.4 7457.39 10355.7C7485.6 10383.9 7501.44 10422.1 7501.44 10462Z" fill="#263238"/>
<path d="M8162.56 10462C8162.43 10491.8 8153.47 10520.8 8136.81 10545.5C8120.15 10570.2 8096.54 10589.4 8068.97 10600.6C8041.41 10611.9 8011.12 10614.7 7981.96 10608.7C7952.79 10602.7 7926.05 10588.2 7905.13 10567C7884.22 10545.8 7870.06 10518.9 7864.45 10489.7C7858.85 10460.4 7862.04 10430.2 7873.64 10402.8C7885.24 10375.3 7904.72 10352 7929.6 10335.6C7954.49 10319.3 7983.67 10310.7 8013.44 10311C8053.22 10311.3 8091.24 10327.4 8119.19 10355.7C8147.14 10384 8162.73 10422.2 8162.56 10462Z" fill="#263238"/>
<path d="M8826.88 10462C8826.88 10491.7 8818.06 10520.8 8801.53 10545.6C8785.01 10570.3 8761.52 10589.6 8734.04 10601C8706.56 10612.3 8676.31 10615.3 8647.14 10609.5C8617.97 10603.7 8591.17 10589.4 8570.13 10568.3C8549.1 10547.3 8534.78 10520.5 8528.97 10491.3C8523.17 10462.2 8526.15 10431.9 8537.53 10404.4C8548.91 10377 8568.19 10353.5 8592.92 10336.9C8617.66 10320.4 8646.74 10311.6 8676.48 10311.6C8716.37 10311.6 8754.62 10327.4 8782.83 10355.7C8811.04 10383.9 8826.88 10422.1 8826.88 10462Z" fill="#263238"/>
<path d="M9490.56 10462C9490.56 10491.7 9481.74 10520.8 9465.22 10545.6C9448.69 10570.3 9425.2 10589.6 9397.72 10601C9370.24 10612.3 9339.99 10615.3 9310.82 10609.5C9281.64 10603.7 9254.85 10589.4 9233.81 10568.3C9212.78 10547.3 9198.45 10520.5 9192.65 10491.3C9186.85 10462.2 9189.83 10431.9 9201.21 10404.4C9212.59 10377 9231.87 10353.5 9256.6 10336.9C9281.34 10320.4 9310.42 10311.6 9340.16 10311.6C9380.05 10311.6 9418.31 10327.4 9446.51 10355.7C9474.72 10383.9 9490.56 10422.1 9490.56 10462Z" fill="#263238"/>
<path d="M14636.2 10462C14636.2 10491.7 14627.3 10520.8 14610.8 10545.6C14594.3 10570.3 14570.8 10589.6 14543.3 10601C14515.8 10612.3 14485.6 10615.3 14456.4 10609.5C14427.2 10603.7 14400.4 10589.4 14379.4 10568.3C14358.4 10547.3 14344.1 10520.5 14338.2 10491.3C14332.4 10462.2 14335.4 10431.9 14346.8 10404.4C14358.2 10377 14377.5 10353.5 14402.2 10336.9C14426.9 10320.4 14456 10311.6 14485.8 10311.6C14505.5 10311.6 14525.1 10315.5 14543.3 10323C14561.6 10330.6 14578.1 10341.7 14592.1 10355.7C14606.1 10369.6 14617.2 10386.2 14624.7 10404.4C14632.3 10422.7 14636.2 10442.2 14636.2 10462Z" fill="#263238"/>
<path d="M15313.3 10462C15313.3 10491.7 15304.5 10520.8 15287.9 10545.6C15271.4 10570.3 15247.9 10589.6 15220.4 10601C15193 10612.3 15162.7 10615.3 15133.5 10609.5C15104.4 10603.7 15077.6 10589.4 15056.5 10568.3C15035.5 10547.3 15021.2 10520.5 15015.4 10491.3C15009.6 10462.2 15012.5 10431.9 15023.9 10404.4C15035.3 10377 15054.6 10353.5 15079.3 10336.9C15104.1 10320.4 15133.1 10311.6 15162.9 10311.6C15202.8 10311.6 15241 10327.4 15269.2 10355.7C15297.4 10383.9 15313.3 10422.1 15313.3 10462Z" fill="#263238"/>
<path d="M10154.9 10462C10154.9 10491.7 10146.1 10520.8 10129.5 10545.6C10113 10570.3 10089.5 10589.6 10062 10601C10034.6 10612.3 10004.3 10615.3 9975.14 10609.5C9945.97 10603.7 9919.17 10589.4 9898.13 10568.3C9877.1 10547.3 9862.78 10520.5 9856.97 10491.3C9851.17 10462.2 9854.15 10431.9 9865.53 10404.4C9876.91 10377 9896.19 10353.5 9920.92 10336.9C9945.66 10320.4 9974.74 10311.6 10004.5 10311.6C10044.4 10311.6 10082.6 10327.4 10110.8 10355.7C10139 10383.9 10154.9 10422.1 10154.9 10462Z" fill="#263238"/>
<path d="M13415.7 10462C13415.7 10491.7 13406.9 10520.8 13390.3 10545.6C13373.8 10570.3 13350.3 10589.6 13322.8 10601C13295.4 10612.3 13265.1 10615.3 13235.9 10609.5C13206.8 10603.7 13180 10589.4 13158.9 10568.3C13137.9 10547.3 13123.6 10520.5 13117.8 10491.3C13112 10462.2 13114.9 10431.9 13126.3 10404.4C13137.7 10377 13157 10353.5 13181.7 10336.9C13206.5 10320.4 13235.5 10311.6 13265.3 10311.6C13305.2 10311.6 13343.4 10327.4 13371.6 10355.7C13399.8 10383.9 13415.7 10422.1 13415.7 10462Z" fill="#263238"/>
<path d="M10818.6 10462C10818.6 10491.7 10809.7 10520.8 10793.2 10545.6C10776.7 10570.3 10753.2 10589.6 10725.7 10601C10698.2 10612.3 10668 10615.3 10638.8 10609.5C10609.6 10603.7 10582.8 10589.4 10561.8 10568.3C10540.8 10547.3 10526.5 10520.5 10520.6 10491.3C10514.8 10462.2 10517.8 10431.9 10529.2 10404.4C10540.6 10377 10559.9 10353.5 10584.6 10336.9C10609.3 10320.4 10638.4 10311.6 10668.2 10311.6C10687.9 10311.6 10707.5 10315.5 10725.7 10323C10744 10330.6 10760.5 10341.7 10774.5 10355.7C10788.5 10369.6 10799.6 10386.2 10807.1 10404.4C10814.7 10422.7 10818.6 10442.2 10818.6 10462Z" fill="#F5F5F5"/>
<path d="M11482.9 10462C11482.9 10491.7 11474.1 10520.8 11457.5 10545.6C11441 10570.3 11417.5 10589.6 11390 10601C11362.6 10612.3 11332.3 10615.3 11303.1 10609.5C11274 10603.7 11247.2 10589.4 11226.1 10568.3C11205.1 10547.3 11190.8 10520.5 11185 10491.3C11179.2 10462.2 11182.1 10431.9 11193.5 10404.4C11204.9 10377 11224.2 10353.5 11248.9 10336.9C11273.7 10320.4 11302.7 10311.6 11332.5 10311.6C11372.4 10311.6 11410.6 10327.4 11438.8 10355.7C11467 10383.9 11482.9 10422.1 11482.9 10462Z" fill="#F5F5F5"/>
<path d="M12830.1 10462C12830.1 10491.7 12821.3 10520.8 12804.7 10545.6C12788.2 10570.3 12764.7 10589.6 12737.2 10601C12709.8 10612.3 12679.5 10615.3 12650.3 10609.5C12621.2 10603.7 12594.4 10589.4 12573.3 10568.3C12552.3 10547.3 12538 10520.5 12532.2 10491.3C12526.4 10462.2 12529.3 10431.9 12540.7 10404.4C12552.1 10377 12571.4 10353.5 12596.1 10336.9C12620.9 10320.4 12649.9 10311.6 12679.7 10311.6C12719.6 10311.6 12757.8 10327.4 12786 10355.7C12814.2 10383.9 12830.1 10422.1 12830.1 10462Z" fill="#F5F5F5"/>
<path d="M15864.3 10462C15864.3 10491.7 15855.5 10520.8 15839 10545.6C15822.4 10570.3 15799 10589.6 15771.5 10601C15744 10612.3 15713.8 10615.3 15684.6 10609.5C15655.4 10603.7 15628.6 10589.4 15607.6 10568.3C15586.5 10547.3 15572.2 10520.5 15566.4 10491.3C15560.6 10462.2 15563.6 10431.9 15575 10404.4C15586.4 10377 15605.6 10353.5 15630.4 10336.9C15655.1 10320.4 15684.2 10311.6 15713.9 10311.6C15753.8 10311.6 15792.1 10327.4 15820.3 10355.7C15848.5 10383.9 15864.3 10422.1 15864.3 10462Z" fill="#F5F5F5"/>
<path d="M12195.2 10462C12195.1 10491.7 12186.1 10520.8 12169.5 10545.4C12152.9 10570.1 12129.3 10589.3 12101.8 10600.6C12074.2 10611.8 12044 10614.7 12014.8 10608.7C11985.7 10602.8 11958.9 10588.4 11938 10567.3C11917.1 10546.1 11902.9 10519.3 11897.2 10490.1C11891.5 10460.9 11894.6 10430.6 11906.1 10403.2C11917.6 10375.8 11937 10352.4 11961.8 10336C11986.6 10319.5 12015.7 10310.8 12045.4 10311C12065.2 10311 12084.7 10315 12103 10322.7C12121.2 10330.3 12137.7 10341.4 12151.6 10355.5C12165.5 10369.5 12176.5 10386.1 12184 10404.4C12191.5 10422.7 12195.3 10442.2 12195.2 10462Z" fill="url(#paint14_linear_49_2)"/>
<path d="M14093.4 10462C14093.4 10491.7 14084.6 10520.8 14068.1 10545.6C14051.6 10570.3 14028.1 10589.6 14000.6 10601C13973.1 10612.3 13942.9 10615.3 13913.7 10609.5C13884.5 10603.7 13857.7 10589.4 13836.7 10568.3C13815.7 10547.3 13801.3 10520.5 13795.5 10491.3C13789.7 10462.2 13792.7 10431.9 13804.1 10404.4C13815.5 10377 13834.8 10353.5 13859.5 10336.9C13884.2 10320.4 13913.3 10311.6 13943 10311.6C13982.9 10311.6 14021.2 10327.4 14049.4 10355.7C14077.6 10383.9 14093.4 10422.1 14093.4 10462Z" fill="url(#paint15_linear_49_2)"/>
<path d="M15565.4 11187.1C15565.4 11157.4 15574.3 11128.3 15590.8 11103.6C15607.3 11078.8 15630.8 11059.6 15658.3 11048.2C15685.8 11036.8 15716 11033.8 15745.2 11039.6C15774.4 11045.4 15801.2 11059.7 15822.2 11080.8C15843.2 11101.8 15857.5 11128.6 15863.3 11157.8C15869.2 11187 15866.2 11217.2 15854.8 11244.7C15843.4 11272.2 15824.1 11295.6 15799.4 11312.2C15774.7 11328.7 15745.6 11337.5 15715.8 11337.5C15675.9 11337.5 15637.7 11321.7 15609.5 11293.5C15581.3 11265.3 15565.4 11227 15565.4 11187.1Z" fill="#263238"/>
<path d="M14899.2 11187.1C14899.1 11157.2 14907.8 11127.9 14924.4 11103C14940.9 11078 14964.5 11058.6 14992.1 11047.1C15019.8 11035.5 15050.2 11032.5 15079.5 11038.3C15108.9 11044.1 15135.9 11058.5 15157 11079.7C15178.2 11100.8 15192.6 11127.8 15198.4 11157.2C15204.2 11186.5 15201.2 11217 15189.7 11244.6C15178.1 11272.2 15158.7 11295.8 15133.7 11312.3C15108.8 11328.9 15079.5 11337.6 15049.6 11337.5C15009.7 11337.5 14971.5 11321.7 14943.2 11293.5C14915 11265.3 14899.2 11227 14899.2 11187.1Z" fill="#263238"/>
<path d="M14235.5 11187.1C14235.5 11157.4 14244.3 11128.3 14260.9 11103.6C14277.4 11078.8 14300.9 11059.6 14328.4 11048.2C14355.8 11036.8 14386.1 11033.8 14415.3 11039.6C14444.4 11045.4 14471.2 11059.7 14492.3 11080.8C14513.3 11101.8 14527.6 11128.6 14533.4 11157.8C14539.2 11187 14536.3 11217.2 14524.9 11244.7C14513.5 11272.2 14494.2 11295.6 14469.5 11312.2C14444.7 11328.7 14415.7 11337.5 14385.9 11337.5C14346 11337.5 14307.8 11321.7 14279.6 11293.5C14251.4 11265.3 14235.5 11227 14235.5 11187.1Z" fill="#263238"/>
<path d="M13571.2 11187.1C13571.2 11157.4 13580 11128.3 13596.6 11103.6C13613.1 11078.8 13636.6 11059.6 13664 11048.2C13691.5 11036.8 13721.8 11033.8 13750.9 11039.6C13780.1 11045.4 13806.9 11059.7 13828 11080.8C13849 11101.8 13863.3 11128.6 13869.1 11157.8C13874.9 11187 13871.9 11217.2 13860.6 11244.7C13849.2 11272.2 13829.9 11295.6 13805.2 11312.2C13780.4 11328.7 13751.3 11337.5 13721.6 11337.5C13681.7 11337.5 13643.5 11321.7 13615.3 11293.5C13587 11265.3 13571.2 11227 13571.2 11187.1Z" fill="#263238"/>
<path d="M8425.6 11187.1C8425.48 11157.2 8434.24 11127.9 8450.79 11103C8467.34 11078 8490.92 11058.6 8518.55 11047.1C8546.17 11035.5 8576.59 11032.5 8605.95 11038.3C8635.31 11044.1 8662.28 11058.5 8683.44 11079.7C8704.6 11100.8 8719 11127.8 8724.81 11157.2C8730.62 11186.5 8727.57 11217 8716.06 11244.6C8704.55 11272.2 8685.09 11295.8 8660.16 11312.3C8635.22 11328.9 8605.93 11337.6 8576 11337.5C8536.11 11337.5 8497.86 11321.7 8469.65 11293.5C8441.45 11265.3 8425.6 11227 8425.6 11187.1Z" fill="#263238"/>
<path d="M7748.48 11187.1C7748.36 11157.2 7757.12 11127.9 7773.67 11103C7790.22 11078 7813.8 11058.6 7841.43 11047.1C7869.05 11035.5 7899.47 11032.5 7928.83 11038.3C7958.19 11044.1 7985.16 11058.5 8006.32 11079.7C8027.48 11100.8 8041.88 11127.8 8047.69 11157.2C8053.5 11186.5 8050.45 11217 8038.94 11244.6C8027.43 11272.2 8007.97 11295.8 7983.04 11312.3C7958.1 11328.9 7928.81 11337.6 7898.88 11337.5C7858.99 11337.5 7820.74 11321.7 7792.53 11293.5C7764.33 11265.3 7748.48 11227 7748.48 11187.1Z" fill="#263238"/>
<path d="M12907.5 11187.1C12907.5 11157.4 12916.3 11128.3 12932.9 11103.6C12949.4 11078.8 12972.9 11059.6 13000.4 11048.2C13027.8 11036.8 13058.1 11033.8 13087.3 11039.6C13116.4 11045.4 13143.2 11059.7 13164.3 11080.8C13185.3 11101.8 13199.6 11128.6 13205.4 11157.8C13211.2 11187 13208.3 11217.2 13196.9 11244.7C13185.5 11272.2 13166.2 11295.6 13141.5 11312.2C13116.7 11328.7 13087.7 11337.5 13057.9 11337.5C13038.2 11337.5 13018.6 11333.6 13000.4 11326.1C12982.1 11318.5 12965.5 11307.4 12951.6 11293.5C12937.6 11279.5 12926.5 11262.9 12919 11244.7C12911.4 11226.4 12907.5 11206.9 12907.5 11187.1Z" fill="#263238"/>
<path d="M9797.12 11337.5C9880.18 11337.5 9947.52 11270.2 9947.52 11187.1C9947.52 11104.1 9880.18 11036.7 9797.12 11036.7C9714.05 11036.7 9646.72 11104.1 9646.72 11187.1C9646.72 11270.2 9714.05 11337.5 9797.12 11337.5Z" fill="#263238"/>
<path d="M12243.2 11187.1C12243.2 11157.4 12252 11128.3 12268.6 11103.6C12285.1 11078.8 12308.6 11059.6 12336 11048.2C12363.5 11036.8 12393.8 11033.8 12422.9 11039.6C12452.1 11045.4 12478.9 11059.7 12500 11080.8C12521 11101.8 12535.3 11128.6 12541.1 11157.8C12546.9 11187 12543.9 11217.2 12532.6 11244.7C12521.2 11272.2 12501.9 11295.6 12477.2 11312.2C12452.4 11328.7 12423.3 11337.5 12393.6 11337.5C12373.9 11337.5 12354.3 11333.6 12336 11326.1C12317.8 11318.5 12301.2 11307.4 12287.3 11293.5C12273.3 11279.5 12262.2 11262.9 12254.7 11244.7C12247.1 11226.4 12243.2 11206.9 12243.2 11187.1Z" fill="#F5F5F5"/>
<path d="M11729.9 11337.5C11813 11337.5 11880.3 11270.2 11880.3 11187.1C11880.3 11104.1 11813 11036.7 11729.9 11036.7C11646.9 11036.7 11579.5 11104.1 11579.5 11187.1C11579.5 11270.2 11646.9 11337.5 11729.9 11337.5Z" fill="#F5F5F5"/>
<path d="M10232.3 11187.1C10231.8 11157.2 10240.2 11127.8 10256.5 11102.7C10272.8 11077.6 10296.2 11058 10323.7 11046.2C10351.2 11034.5 10381.6 11031.2 10410.9 11036.8C10440.3 11042.5 10467.3 11056.7 10488.6 11077.8C10509.8 11098.8 10524.3 11125.7 10530.2 11155.1C10536 11184.4 10533 11214.8 10521.5 11242.4C10510 11270 10490.6 11293.6 10465.6 11310C10440.6 11326.5 10411.3 11335.2 10381.4 11335C10342.2 11334.6 10304.7 11319 10276.8 11291.4C10248.9 11263.8 10233 11226.3 10232.3 11187.1Z" fill="#F5F5F5"/>
<path d="M7197.44 11187.1C7197.32 11157.2 7206.07 11128 7222.59 11103C7239.11 11078.1 7262.65 11058.7 7290.24 11047.1C7317.83 11035.6 7348.21 11032.5 7377.56 11038.3C7406.9 11044 7433.87 11058.4 7455.06 11079.5C7476.24 11100.5 7490.69 11127.5 7496.57 11156.8C7502.45 11186.1 7499.5 11216.5 7488.09 11244.1C7476.67 11271.8 7457.31 11295.4 7432.46 11312C7407.61 11328.6 7378.38 11337.5 7348.48 11337.5C7308.54 11337.5 7270.21 11321.7 7241.91 11293.5C7213.6 11265.3 7197.61 11227.1 7197.44 11187.1Z" fill="#F5F5F5"/>
<path d="M10963.8 11187.1C10963.8 11103.9 10982.4 11036.7 11065.6 11036.7C11105.5 11036.7 11143.7 11052.6 11172 11080.8C11200.2 11109 11216 11147.2 11216 11187.1C11216 11227 11200.2 11265.3 11172 11293.5C11143.7 11321.7 11105.5 11337.5 11065.6 11337.5C10982.4 11335 10963.8 11271 10963.8 11187.1Z" fill="url(#paint16_linear_49_2)"/>
<path d="M9062.4 11187.1C9062.4 11157.4 9071.22 11128.3 9087.75 11103.6C9104.28 11078.8 9127.77 11059.6 9155.25 11048.2C9182.73 11036.8 9212.97 11033.8 9242.14 11039.6C9271.32 11045.4 9298.12 11059.7 9319.15 11080.8C9340.19 11101.8 9354.51 11128.6 9360.31 11157.8C9366.12 11187 9363.14 11217.2 9351.75 11244.7C9340.37 11272.2 9321.09 11295.6 9296.36 11312.2C9271.63 11328.7 9242.55 11337.5 9212.8 11337.5C9172.91 11337.5 9134.66 11321.7 9106.45 11293.5C9078.25 11265.3 9062.4 11227 9062.4 11187.1Z" fill="url(#paint17_linear_49_2)"/>
<path d="M7501.44 11832.2C7501.57 11862.2 7492.8 11891.5 7476.25 11916.4C7459.71 11941.3 7436.12 11960.8 7408.5 11972.3C7380.87 11983.8 7350.45 11986.9 7321.09 11981C7291.74 11975.2 7264.76 11960.8 7243.6 11939.7C7222.44 11918.5 7208.04 11891.5 7202.23 11862.2C7196.43 11832.8 7199.47 11802.4 7210.98 11774.8C7222.49 11747.2 7241.95 11723.6 7266.89 11707C7291.82 11690.5 7321.11 11681.7 7351.04 11681.8C7390.93 11681.8 7429.19 11697.7 7457.39 11725.9C7485.6 11754.1 7501.44 11792.4 7501.44 11832.2Z" fill="#263238"/>
<path d="M8162.56 11832.2C8162.56 11862 8153.74 11891.1 8137.22 11915.8C8120.69 11940.5 8097.2 11959.8 8069.72 11971.2C8042.24 11982.6 8011.99 11985.6 7982.82 11979.7C7953.64 11973.9 7926.85 11959.6 7905.81 11938.6C7884.78 11917.6 7870.45 11890.8 7864.65 11861.6C7858.85 11832.4 7861.83 11802.2 7873.21 11774.7C7884.59 11747.2 7903.87 11723.7 7928.6 11707.2C7953.34 11690.7 7982.42 11681.8 8012.16 11681.8C8052.05 11681.8 8090.31 11697.7 8118.51 11725.9C8146.72 11754.1 8162.56 11792.4 8162.56 11832.2Z" fill="#263238"/>
<path d="M8826.88 11832.2C8826.88 11862 8818.06 11891.1 8801.53 11915.8C8785.01 11940.5 8761.52 11959.8 8734.04 11971.2C8706.56 11982.6 8676.31 11985.6 8647.14 11979.7C8617.97 11973.9 8591.17 11959.6 8570.13 11938.6C8549.1 11917.6 8534.78 11890.8 8528.97 11861.6C8523.17 11832.4 8526.15 11802.2 8537.53 11774.7C8548.91 11747.2 8568.19 11723.7 8592.92 11707.2C8617.66 11690.7 8646.74 11681.8 8676.48 11681.8C8716.37 11681.8 8754.62 11697.7 8782.83 11725.9C8811.04 11754.1 8826.88 11792.4 8826.88 11832.2Z" fill="#263238"/>
<path d="M9340.16 11982.6C9423.22 11982.6 9490.56 11915.3 9490.56 11832.2C9490.56 11749.2 9423.22 11681.8 9340.16 11681.8C9257.1 11681.8 9189.76 11749.2 9189.76 11832.2C9189.76 11915.3 9257.1 11982.6 9340.16 11982.6Z" fill="#263238"/>
<path d="M14636.2 11832.2C14636.2 11862 14627.3 11891.1 14610.8 11915.8C14594.3 11940.5 14570.8 11959.8 14543.3 11971.2C14515.8 11982.6 14485.6 11985.6 14456.4 11979.7C14427.2 11973.9 14400.4 11959.6 14379.4 11938.6C14358.4 11917.6 14344.1 11890.8 14338.2 11861.6C14332.4 11832.4 14335.4 11802.2 14346.8 11774.7C14358.2 11747.2 14377.5 11723.7 14402.2 11707.2C14426.9 11690.7 14456 11681.8 14485.8 11681.8C14505.5 11681.8 14525.1 11685.7 14543.3 11693.3C14561.6 11700.8 14578.1 11711.9 14592.1 11725.9C14606.1 11739.9 14617.2 11756.4 14624.7 11774.7C14632.3 11792.9 14636.2 11812.5 14636.2 11832.2Z" fill="#263238"/>
<path d="M15313.3 11832.2C15313.3 11862 15304.5 11891.1 15287.9 11915.8C15271.4 11940.5 15247.9 11959.8 15220.4 11971.2C15193 11982.6 15162.7 11985.6 15133.5 11979.7C15104.4 11973.9 15077.6 11959.6 15056.5 11938.6C15035.5 11917.6 15021.2 11890.8 15015.4 11861.6C15009.6 11832.4 15012.5 11802.2 15023.9 11774.7C15035.3 11747.2 15054.6 11723.7 15079.3 11707.2C15104.1 11690.7 15133.1 11681.8 15162.9 11681.8C15202.8 11681.8 15241 11697.7 15269.2 11725.9C15297.4 11754.1 15313.3 11792.4 15313.3 11832.2Z" fill="#263238"/>
<path d="M10154.9 11832.2C10154.9 11862 10146.1 11891.1 10129.5 11915.8C10113 11940.5 10089.5 11959.8 10062 11971.2C10034.6 11982.6 10004.3 11985.6 9975.14 11979.7C9945.97 11973.9 9919.17 11959.6 9898.13 11938.6C9877.1 11917.6 9862.78 11890.8 9856.97 11861.6C9851.17 11832.4 9854.15 11802.2 9865.53 11774.7C9876.91 11747.2 9896.19 11723.7 9920.92 11707.2C9945.66 11690.7 9974.74 11681.8 10004.5 11681.8C10044.4 11681.8 10082.6 11697.7 10110.8 11725.9C10139 11754.1 10154.9 11792.4 10154.9 11832.2Z" fill="#263238"/>
<path d="M13415.7 11832.2C13415.7 11862 13406.9 11891.1 13390.3 11915.8C13373.8 11940.5 13350.3 11959.8 13322.8 11971.2C13295.4 11982.6 13265.1 11985.6 13235.9 11979.7C13206.8 11973.9 13180 11959.6 13158.9 11938.6C13137.9 11917.6 13123.6 11890.8 13117.8 11861.6C13112 11832.4 13114.9 11802.2 13126.3 11774.7C13137.7 11747.2 13157 11723.7 13181.7 11707.2C13206.5 11690.7 13235.5 11681.8 13265.3 11681.8C13305.2 11681.8 13343.4 11697.7 13371.6 11725.9C13399.8 11754.1 13415.7 11792.4 13415.7 11832.2Z" fill="#263238"/>
<path d="M10818.6 11832.2C10818.6 11862 10809.7 11891.1 10793.2 11915.8C10776.7 11940.5 10753.2 11959.8 10725.7 11971.2C10698.2 11982.6 10668 11985.6 10638.8 11979.7C10609.6 11973.9 10582.8 11959.6 10561.8 11938.6C10540.8 11917.6 10526.5 11890.8 10520.6 11861.6C10514.8 11832.4 10517.8 11802.2 10529.2 11774.7C10540.6 11747.2 10559.9 11723.7 10584.6 11707.2C10609.3 11690.7 10638.4 11681.8 10668.2 11681.8C10687.9 11681.8 10707.5 11685.7 10725.7 11693.3C10744 11700.8 10760.5 11711.9 10774.5 11725.9C10788.5 11739.9 10799.6 11756.4 10807.1 11774.7C10814.7 11792.9 10818.6 11812.5 10818.6 11832.2Z" fill="#F5F5F5"/>
<path d="M11482.9 11832.2C11482.9 11862 11474.1 11891.1 11457.5 11915.8C11441 11940.5 11417.5 11959.8 11390 11971.2C11362.6 11982.6 11332.3 11985.6 11303.1 11979.7C11274 11973.9 11247.2 11959.6 11226.1 11938.6C11205.1 11917.6 11190.8 11890.8 11185 11861.6C11179.2 11832.4 11182.1 11802.2 11193.5 11774.7C11204.9 11747.2 11224.2 11723.7 11248.9 11707.2C11273.7 11690.7 11302.7 11681.8 11332.5 11681.8C11372.4 11681.8 11410.6 11697.7 11438.8 11725.9C11467 11754.1 11482.9 11792.4 11482.9 11832.2Z" fill="#F5F5F5"/>
<path d="M12679.7 11982.6C12762.7 11982.6 12830.1 11915.3 12830.1 11832.2C12830.1 11749.2 12762.7 11681.8 12679.7 11681.8C12596.6 11681.8 12529.3 11749.2 12529.3 11832.2C12529.3 11915.3 12596.6 11982.6 12679.7 11982.6Z" fill="#F5F5F5"/>
<path d="M15864.3 11832.2C15864.3 11862 15855.5 11891.1 15839 11915.8C15822.4 11940.5 15799 11959.8 15771.5 11971.2C15744 11982.6 15713.8 11985.6 15684.6 11979.7C15655.4 11973.9 15628.6 11959.6 15607.6 11938.6C15586.5 11917.6 15572.2 11890.8 15566.4 11861.6C15560.6 11832.4 15563.6 11802.2 15575 11774.7C15586.4 11747.2 15605.6 11723.7 15630.4 11707.2C15655.1 11690.7 15684.2 11681.8 15713.9 11681.8C15753.8 11681.8 15792.1 11697.7 15820.3 11725.9C15848.5 11754.1 15864.3 11792.4 15864.3 11832.2Z" fill="#F5F5F5"/>
<path d="M12146.6 11832.2C12146.6 11852 12142.7 11871.5 12135.1 11889.8C12127.6 11908 12116.5 11924.6 12102.5 11938.6C12088.5 11952.6 12072 11963.6 12053.7 11971.2C12035.5 11978.7 12015.9 11982.6 11996.2 11982.6C11913 11982.6 11894.4 11915.4 11894.4 11832.2C11894.4 11749 11913 11681.8 11996.2 11681.8C12015.9 11681.8 12035.5 11685.7 12053.7 11693.3C12072 11700.8 12088.5 11711.9 12102.5 11725.9C12116.5 11739.9 12127.6 11756.4 12135.1 11774.7C12142.7 11792.9 12146.6 11812.5 12146.6 11832.2Z" fill="url(#paint18_linear_49_2)"/>
<path d="M14093.4 11832.2C14093.4 11862 14084.6 11891.1 14068.1 11915.8C14051.6 11940.5 14028.1 11959.8 14000.6 11971.2C13973.1 11982.6 13942.9 11985.6 13913.7 11979.7C13884.5 11973.9 13857.7 11959.6 13836.7 11938.6C13815.7 11917.6 13801.3 11890.8 13795.5 11861.6C13789.7 11832.4 13792.7 11802.2 13804.1 11774.7C13815.5 11747.2 13834.8 11723.7 13859.5 11707.2C13884.2 11690.7 13913.3 11681.8 13943 11681.8C13982.9 11681.8 14021.2 11697.7 14049.4 11725.9C14077.6 11754.1 14093.4 11792.4 14093.4 11832.2Z" fill="url(#paint19_linear_49_2)"/>
<path d="M4877.44 24793.5C4868.48 24793.5 4860.8 24497.8 4860.8 24133C4860.8 23768.2 4868.48 23472.6 4877.44 23472.6C4894.74 23692.3 4900.5 23912.7 4894.72 24133C4900.5 24353.3 4894.74 24573.8 4877.44 24793.5Z" fill="#263238"/>
<path d="M5249.92 24793.5C5233.05 24573.8 5227.5 24353.3 5233.28 24133C5227.5 23912.7 5233.05 23692.3 5249.92 23472.6C5258.88 23472.6 5266.56 23768.2 5266.56 24133C5266.56 24497.8 5261.44 24793.5 5249.92 24793.5Z" fill="#263238"/>
<path d="M5623.04 24793.5C5606.17 24573.8 5600.62 24353.3 5606.4 24133C5600.62 23912.7 5606.17 23692.3 5623.04 23472.6C5632 23472.6 5639.68 23768.2 5639.68 24133C5639.68 24497.8 5632 24793.5 5623.04 24793.5Z" fill="#263238"/>
<path d="M5996.16 24793.5C5979.29 24573.8 5973.74 24353.3 5979.52 24133C5973.74 23912.7 5979.29 23692.3 5996.16 23472.6C6005.12 23472.6 6012.8 23768.2 6012.8 24133C6012.8 24497.8 6005.12 24793.5 5996.16 24793.5Z" fill="#263238"/>
<path d="M6369.28 24793.5C6352.41 24573.8 6346.86 24353.3 6352.64 24133C6346.86 23912.7 6352.41 23692.3 6369.28 23472.6C6378.24 23472.6 6385.92 23768.2 6385.92 24133C6385.92 24497.8 6378.24 24793.5 6369.28 24793.5Z" fill="#263238"/>
<path d="M6742.4 24793.5C6725.53 24573.8 6719.98 24353.3 6725.76 24133C6719.98 23912.7 6725.53 23692.3 6742.4 23472.6C6751.36 23472.6 6759.04 23768.2 6759.04 24133C6759.04 24497.8 6751.36 24793.5 6742.4 24793.5Z" fill="#263238"/>
<path d="M7117.44 24793.5C7108.48 24793.5 7100.8 24497.8 7100.8 24133C7100.8 23768.2 7108.48 23472.6 7117.44 23472.6C7126.4 23472.6 7134.08 23768.2 7134.08 24133C7134.08 24497.8 7124.48 24793.5 7117.44 24793.5Z" fill="#263238"/>
<path d="M7488.64 24793.5C7479.68 24793.5 7472 24497.8 7472 24133C7472 23768.2 7479.68 23472.6 7488.64 23472.6C7497.6 23472.6 7505.28 23768.2 7505.28 24133C7505.28 24497.8 7497.6 24793.5 7488.64 24793.5Z" fill="#263238"/>
<path d="M7861.76 24793.5C7852.8 24793.5 7845.12 24497.8 7845.12 24133C7845.12 23768.2 7852.8 23472.6 7861.76 23472.6C7870.72 23472.6 7878.4 23768.2 7878.4 24133C7878.4 24497.8 7870.72 24793.5 7861.76 24793.5Z" fill="#263238"/>
<path d="M8234.88 24793.5C8225.92 24793.5 8218.24 24497.8 8218.24 24133C8218.24 23768.2 8225.92 23472.6 8234.88 23472.6C8243.84 23472.6 8251.52 23768.2 8251.52 24133C8251.52 24497.8 8243.84 24793.5 8234.88 24793.5Z" fill="#263238"/>
<path d="M8608 24793.5C8599.04 24793.5 8591.36 24497.8 8591.36 24133C8591.36 23768.2 8599.04 23472.6 8608 23472.6C8624.87 23692.3 8630.42 23912.7 8624.64 24133C8630.42 24353.3 8624.87 24573.8 8608 24793.5Z" fill="#263238"/>
<path d="M8981.12 24793.5C8972.16 24793.5 8964.48 24497.8 8964.48 24133C8964.48 23768.2 8972.16 23472.6 8981.12 23472.6C8997.99 23692.3 9003.54 23912.7 8997.76 24133C9003.54 24353.3 8997.99 24573.8 8981.12 24793.5Z" fill="#263238"/>
<path d="M9357.44 24793.5C9348.48 24793.5 9340.8 24497.8 9340.8 24133C9340.8 23768.2 9348.48 23472.6 9357.44 23472.6C9374.31 23692.3 9379.86 23912.7 9374.08 24133C9379.86 24353.3 9374.31 24573.8 9357.44 24793.5Z" fill="#263238"/>
<path d="M9727.36 24793.5C9718.4 24793.5 9710.72 24497.8 9710.72 24133C9710.72 23768.2 9718.4 23472.6 9727.36 23472.6C9743.44 23693 9748.14 23914.1 9741.44 24135C9748.01 24354.6 9743.31 24574.4 9727.36 24793.5Z" fill="#263238"/>
<path d="M10100.5 24793.5C10091.5 24793.5 10083.8 24497.8 10083.8 24133C10083.8 23768.2 10091.5 23472.6 10100.5 23472.6C10117.4 23692.3 10122.9 23912.7 10117.1 24133C10122.9 24353.3 10117.4 24573.8 10100.5 24793.5Z" fill="#263238"/>
<path d="M10473.6 24793.5C10464.6 24793.5 10457 24497.8 10457 24133C10457 23768.2 10464.6 23472.6 10473.6 23472.6C10490.9 23692.3 10496.7 23912.7 10490.9 24133C10496.7 24353.3 10490.9 24573.8 10473.6 24793.5Z" fill="#263238"/>
<path d="M10847.4 24793.5C10830.1 24574.5 10824.1 24354.6 10829.4 24135C10823.7 23914.7 10829.2 23694.2 10846.1 23474.5C10855 23474.5 10862.7 23770.2 10862.7 24135C10862.7 24499.8 10856.3 24793.5 10847.4 24793.5Z" fill="#263238"/>
<path d="M11220.5 24793.5C11203.6 24573.8 11198.1 24353.3 11203.8 24133C11198.1 23912.7 11203.6 23692.3 11220.5 23472.6C11229.4 23472.6 11237.1 23768.2 11237.1 24133C11237.1 24497.8 11229.4 24793.5 11220.5 24793.5Z" fill="#263238"/>
<path d="M11593.6 24793.5C11576.7 24573.8 11571.2 24353.3 11577 24133C11571.2 23912.7 11576.7 23692.3 11593.6 23472.6C11602.6 23472.6 11610.2 23768.2 11610.2 24133C11610.2 24497.8 11602.6 24793.5 11593.6 24793.5Z" fill="#263238"/>
<path d="M11966.7 24793.5C11949.8 24573.8 11944.3 24353.3 11950.1 24133C11944.3 23912.7 11949.8 23692.3 11966.7 23472.6C11975.7 23472.6 11983.4 23768.2 11983.4 24133C11983.4 24497.8 11975.7 24793.5 11966.7 24793.5Z" fill="#263238"/>
<path d="M12339.8 24793.5C12323 24573.8 12317.4 24353.3 12323.2 24133C12317.4 23912.7 12323 23692.3 12339.8 23472.6C12348.8 23472.6 12356.5 23768.2 12356.5 24133C12356.5 24497.8 12348.8 24793.5 12339.8 24793.5Z" fill="#263238"/>
<path d="M12713 24793.5C12704 24793.5 12696.3 24497.8 12696.3 24133C12696.3 23768.2 12704 23472.6 12713 23472.6C12721.9 23472.6 12729.6 23768.2 12729.6 24133C12729.6 24497.8 12721.9 24793.5 12713 24793.5Z" fill="#263238"/>
<path d="M13086.1 24793.5C13077.1 24793.5 13069.4 24497.8 13069.4 24133C13069.4 23768.2 13077.1 23472.6 13086.1 23472.6C13095 23472.6 13102.7 23768.2 13102.7 24133C13102.7 24497.8 13095 24793.5 13086.1 24793.5Z" fill="#263238"/>
<path d="M13459.2 24793.5C13450.2 24793.5 13442.6 24497.8 13442.6 24133C13442.6 23768.2 13450.2 23472.6 13459.2 23472.6C13468.2 23472.6 13475.8 23768.2 13475.8 24133C13475.8 24497.8 13468.2 24793.5 13459.2 24793.5Z" fill="#263238"/>
<path d="M13832.3 24793.5C13823.4 24793.5 13815.7 24497.8 13815.7 24133C13815.7 23768.2 13823.4 23472.6 13832.3 23472.6C13841.3 23472.6 13849 23768.2 13849 24133C13849 24497.8 13841.3 24793.5 13832.3 24793.5Z" fill="#263238"/>
<path d="M14205.4 24793.5C14196.5 24793.5 14188.8 24497.8 14188.8 24133C14188.8 23768.2 14196.5 23472.6 14205.4 23472.6C14222.2 23692.9 14227.5 23914 14221.4 24135C14227.4 24354.6 14222 24574.4 14205.4 24793.5Z" fill="#263238"/>
<path d="M14578.6 24793.5C14569.6 24793.5 14561.9 24497.8 14561.9 24133C14561.9 23768.2 14569.6 23472.6 14578.6 23472.6C14595.4 23692.3 14601 23912.7 14595.2 24133C14601 24353.3 14595.4 24573.8 14578.6 24793.5Z" fill="#263238"/>
<path d="M14951.7 24793.5C14942.7 24793.5 14935 24497.8 14935 24133C14935 23768.2 14942.7 23472.6 14951.7 23472.6C14968.5 23692.3 14974.1 23912.7 14968.3 24133C14974.1 24353.3 14968.5 24573.8 14951.7 24793.5Z" fill="#263238"/>
<path d="M17881 22572.1C17881 22581 14353.9 22588.7 10004.5 22588.7C5655.04 22588.7 2125.44 22581 2125.44 22572.1C2125.44 22563.1 5651.84 22555.4 10002.6 22555.4C14353.3 22555.4 17881 22562.5 17881 22572.1Z" fill="#263238"/>
<path d="M18061.4 25379.8C18061.4 25388.7 14463.4 25396.4 10025.6 25396.4C5587.84 25396.4 1989.76 25388.7 1989.76 25379.8C1989.76 25370.8 5587.2 25363.1 10025.6 25363.1C14464 25363.1 18061.4 25370.8 18061.4 25379.8Z" fill="#263238"/>
<path d="M17691.5 22353.2C17691.5 22232.2 17685.8 16671.3 17677.4 8118.96L17691.5 8133.04H2410.24L2426.88 8116.4C2426.88 13307.4 2426.88 18185.5 2426.88 22350.6L2412.16 22335.9L17695.4 22350.6L2412.16 22364.7H2398.08V22350.6C2398.08 18185.5 2398.08 13307.4 2398.08 8116.4V8099.76H2416.64H17697.9H17712.6V8114.48C17697.3 16671.3 17691.5 22232.2 17691.5 22353.2Z" fill="#263238"/>
<path d="M12877.4 12831.9C12877.4 12831.9 12871 12839.6 12857.6 12853L12796.8 12913.2C12741.1 12966.3 12661.1 13041.2 12559.4 13141.7L11683.8 13978.8C10944.6 14682.8 9925.12 15664.6 8803.84 16751.9C7682.56 17839.3 6677.12 18830.6 5949.44 19550L5087.36 20401.2L4852.48 20631.6L4788.48 20691.1C4781.47 20698 4773.99 20704.4 4766.08 20710.3C4766.08 20710.3 4772.48 20702.6 4785.92 20688.6L4845.44 20624.6L5075.84 20389L5930.24 19530.2C6653.44 18807.6 7658.24 17813.7 8777.6 16725.7C9896.96 15637.7 10921.6 14663 11664.6 13959L12547.8 13127L12789.1 12903L12853.1 12845.4L12877.4 12831.9Z" fill="white"/>
<path d="M12124.2 12236.1C12124.2 12236.1 12119 12242.5 12108.2 12253.4L12058.2 12302.6L11866.2 12488.2L11159 13171.8C10561.9 13747.8 9741.44 14552.2 8837.76 15440.6C7934.08 16328.9 7116.16 17135.3 6519.04 17712.6C6220.16 18001.2 5976.32 18232.9 5804.16 18389C5718.4 18467.1 5650.56 18526.6 5602.56 18565C5584.36 18579.6 5565.34 18593 5545.6 18605.4C5540.39 18608.8 5534.49 18610.9 5528.32 18611.8C5523.2 18611.8 5524.48 18606.6 5524.48 18607.3C5524.48 18618.2 5552.64 18599 5598.08 18559.3C5643.52 18519.6 5710.72 18459.4 5795.84 18379.4C5964.8 18220.7 6205.44 17986.5 6499.84 17695.9L8811.52 15416.9C9715.2 14527.9 10539.5 13728.6 11139.8 13155.1C11440 12868.4 11685.1 12637.4 11854.7 12479.3L12051.2 12297.5L12103 12250.8C12109.3 12244.8 12116.4 12239.8 12124.2 12236.1Z" fill="white"/>
<path d="M13000.3 10063.3C12995.7 10069.8 12990.3 10075.8 12984.3 10081.2L12935 10129.8L12743 10316.1L12035.2 10999.6C11438.1 11575.6 10617.6 12379.4 9713.92 13268.4C8810.24 14157.4 7992.32 14962.5 7395.2 15540.4C7096.32 15829 6853.12 16060.1 6680.96 16216.9C6594.56 16295 6526.72 16354.5 6478.72 16392.2C6460.72 16407.2 6441.69 16420.9 6421.76 16433.2C6416.64 16436.3 6411 16438.5 6405.12 16439.6C6399.36 16439.6 6401.28 16434.5 6401.28 16435.1C6401.28 16446 6429.44 16426.8 6474.24 16387.1C6519.04 16347.4 6587.52 16286.6 6672 16207.3C6840.96 16047.9 7082.24 15813.7 7376 15523.1L9688.32 13244.7C10592 12355.8 11416.3 11556.4 12016 10982.3C12316.8 10695.6 12561.3 10465.2 12731.5 10306.5C12815.4 10229 12881.3 10167.6 12928 10125.4L12979.2 10078.6L13000.3 10063.3Z" fill="white"/>
<path d="M2520.96 9914.16H2296.96V11865.5H2520.96V9914.16Z" fill="#263238"/>
<path d="M2520.96 18306.5H2296.96V20257.8H2520.96V18306.5Z" fill="#263238"/>
<path d="M20250.9 26041.5C20250.9 26051.1 15717.1 26058.2 10126.1 26058.2C4535.04 26058.2 0 26051.1 0 26041.5C0 26031.9 4532.48 26024.9 10126.1 26024.9C15719.7 26024.9 20250.9 26032.6 20250.9 26041.5Z" fill="#263238"/>
</g>
<defs>
<linearGradient id="paint0_linear_49_2" x1="15734.6" y1="15.8359" x2="15734.6" y2="6741.85" gradientUnits="userSpaceOnUse">
<stop stop-color="#00ED64"/>
<stop offset="1" stop-color="#00684A"/>
</linearGradient>
<linearGradient id="paint1_linear_49_2" x1="16005.5" y1="2106.8" x2="16005.5" y2="5189.58" gradientUnits="userSpaceOnUse">
<stop stop-color="#00ED64"/>
<stop offset="1" stop-color="#00684A"/>
</linearGradient>
<linearGradient id="paint2_linear_49_2" x1="11899.5" y1="14360.9" x2="11899.5" y2="14663" gradientUnits="userSpaceOnUse">
<stop stop-color="#00ED64"/>
<stop offset="1" stop-color="#00684A"/>
</linearGradient>
<linearGradient id="paint3_linear_49_2" x1="13849.6" y1="14360.9" x2="13849.6" y2="14661.7" gradientUnits="userSpaceOnUse">
<stop stop-color="#00ED64"/>
<stop offset="1" stop-color="#00684A"/>
</linearGradient>
<linearGradient id="paint4_linear_49_2" x1="10969.6" y1="15087.2" x2="10969.6" y2="15389.4" gradientUnits="userSpaceOnUse">
<stop stop-color="#00ED64"/>
<stop offset="1" stop-color="#00684A"/>
</linearGradient>
<linearGradient id="paint5_linear_49_2" x1="9068.16" y1="15088.5" x2="9068.16" y2="15389.4" gradientUnits="userSpaceOnUse">
<stop stop-color="#00ED64"/>
<stop offset="1" stop-color="#00684A"/>
</linearGradient>
<linearGradient id="paint6_linear_49_2" x1="11899.5" y1="15728.6" x2="11899.5" y2="16030.7" gradientUnits="userSpaceOnUse">
<stop stop-color="#00ED64"/>
<stop offset="1" stop-color="#00684A"/>
</linearGradient>
<linearGradient id="paint7_linear_49_2" x1="13801" y1="15731.1" x2="13801" y2="16031.9" gradientUnits="userSpaceOnUse">
<stop stop-color="#00ED64"/>
<stop offset="1" stop-color="#00684A"/>
</linearGradient>
<linearGradient id="paint8_linear_49_2" x1="11866.9" y1="18406.3" x2="11866.9" y2="18707.1" gradientUnits="userSpaceOnUse">
<stop stop-color="#00ED64"/>
<stop offset="1" stop-color="#00684A"/>
</linearGradient>
<linearGradient id="paint9_linear_49_2" x1="13768.3" y1="18406.3" x2="13768.3" y2="18707.1" gradientUnits="userSpaceOnUse">
<stop stop-color="#00ED64"/>
<stop offset="1" stop-color="#00684A"/>
</linearGradient>
<linearGradient id="paint10_linear_49_2" x1="10936.3" y1="19132.1" x2="10936.3" y2="19432.9" gradientUnits="userSpaceOnUse">
<stop stop-color="#00ED64"/>
<stop offset="1" stop-color="#00684A"/>
</linearGradient>
<linearGradient id="paint11_linear_49_2" x1="9034.88" y1="19132.1" x2="9034.88" y2="19432.9" gradientUnits="userSpaceOnUse">
<stop stop-color="#00ED64"/>
<stop offset="1" stop-color="#00684A"/>
</linearGradient>
<linearGradient id="paint12_linear_49_2" x1="11866.9" y1="19777.2" x2="11866.9" y2="20078" gradientUnits="userSpaceOnUse">
<stop stop-color="#00ED64"/>
<stop offset="1" stop-color="#00684A"/>
</linearGradient>
<linearGradient id="paint13_linear_49_2" x1="13768.3" y1="19777.2" x2="13768.3" y2="20078" gradientUnits="userSpaceOnUse">
<stop stop-color="#00ED64"/>
<stop offset="1" stop-color="#00684A"/>
</linearGradient>
<linearGradient id="paint14_linear_49_2" x1="12044.8" y1="10311" x2="12044.8" y2="10611.8" gradientUnits="userSpaceOnUse">
<stop stop-color="#00ED64"/>
<stop offset="1" stop-color="#00684A"/>
</linearGradient>
<linearGradient id="paint15_linear_49_2" x1="13943" y1="10311.6" x2="13943" y2="10612.4" gradientUnits="userSpaceOnUse">
<stop stop-color="#00ED64"/>
<stop offset="1" stop-color="#00684A"/>
</linearGradient>
<linearGradient id="paint16_linear_49_2" x1="11089.9" y1="11036.7" x2="11089.9" y2="11337.5" gradientUnits="userSpaceOnUse">
<stop stop-color="#00ED64"/>
<stop offset="1" stop-color="#00684A"/>
</linearGradient>
<linearGradient id="paint17_linear_49_2" x1="9212.8" y1="11036.7" x2="9212.8" y2="11337.5" gradientUnits="userSpaceOnUse">
<stop stop-color="#00ED64"/>
<stop offset="1" stop-color="#00684A"/>
</linearGradient>
<linearGradient id="paint18_linear_49_2" x1="12020.5" y1="11681.8" x2="12020.5" y2="11982.6" gradientUnits="userSpaceOnUse">
<stop stop-color="#00ED64"/>
<stop offset="1" stop-color="#00684A"/>
</linearGradient>
<linearGradient id="paint19_linear_49_2" x1="13943" y1="11681.8" x2="13943" y2="11982.7" gradientUnits="userSpaceOnUse">
<stop stop-color="#00ED64"/>
<stop offset="1" stop-color="#00684A"/>
</linearGradient>
<clipPath id="clip0_49_2">
<rect width="20251" height="26059" fill="white"/>
</clipPath>
</defs>
</svg>
