<svg width="22" height="22" viewBox="0 0 22 22" fill="none" xmlns="http://www.w3.org/2000/svg">
<path d="M6 13C6.53043 13 7.03914 12.7893 7.41421 12.4142C7.78929 12.0391 8 11.5304 8 11C8 10.4696 7.78929 9.96086 7.41421 9.58579C7.03914 9.21071 6.53043 9 6 9C5.46957 9 4.96086 9.21071 4.58579 9.58579C4.21071 9.96086 4 10.4696 4 11C4 11.5304 4.21071 12.0391 4.58579 12.4142C4.96086 12.7893 5.46957 13 6 13ZM16 13C16.5304 13 17.0391 12.7893 17.4142 12.4142C17.7893 12.0391 18 11.5304 18 11C18 10.4696 17.7893 9.96086 17.4142 9.58579C17.0391 9.21071 16.5304 9 16 9C15.4696 9 14.9609 9.21071 14.5858 9.58579C14.2107 9.96086 14 10.4696 14 11C14 11.5304 14.2107 12.0391 14.5858 12.4142C14.9609 12.7893 15.4696 13 16 13ZM11 8C11.5304 8 12.0391 7.78929 12.4142 7.41421C12.7893 7.03914 13 6.53043 13 6C13 5.46957 12.7893 4.96086 12.4142 4.58579C12.0391 4.21071 11.5304 4 11 4C10.4696 4 9.96086 4.21071 9.58579 4.58579C9.21071 4.96086 9 5.46957 9 6C9 6.53043 9.21071 7.03914 9.58579 7.41421C9.96086 7.78929 10.4696 8 11 8ZM11 18C11.5304 18 12.0391 17.7893 12.4142 17.4142C12.7893 17.0391 13 16.5304 13 16C13 15.4696 12.7893 14.9609 12.4142 14.5858C12.0391 14.2107 11.5304 14 11 14C10.4696 14 9.96086 14.2107 9.58579 14.5858C9.21071 14.9609 9 15.4696 9 16C9 16.5304 9.21071 17.0391 9.58579 17.4142C9.96086 17.7893 10.4696 18 11 18Z" stroke="#3182CE" stroke-width="1.5" stroke-linecap="round" stroke-linejoin="round"/>
<path d="M1 11C1 16.523 5.477 21 11 21C16.523 21 21 16.523 21 11C21 5.477 16.523 1 11 1C5.477 1 1 5.477 1 11ZM1 11V21" stroke="#3182CE" stroke-width="1.5" stroke-linecap="round" stroke-linejoin="round"/>
</svg>
