<svg width="95" height="27" viewBox="0 0 95 27" fill="none" xmlns="http://www.w3.org/2000/svg">
<path d="M6 13C6.53043 13 7.03914 12.7893 7.41421 12.4142C7.78929 12.0391 8 11.5304 8 11C8 10.4696 7.78929 9.96086 7.41421 9.58579C7.03914 9.21071 6.53043 9 6 9C5.46957 9 4.96086 9.21071 4.58579 9.58579C4.21071 9.96086 4 10.4696 4 11C4 11.5304 4.21071 12.0391 4.58579 12.4142C4.96086 12.7893 5.46957 13 6 13ZM16 13C16.5304 13 17.0391 12.7893 17.4142 12.4142C17.7893 12.0391 18 11.5304 18 11C18 10.4696 17.7893 9.96086 17.4142 9.58579C17.0391 9.21071 16.5304 9 16 9C15.4696 9 14.9609 9.21071 14.5858 9.58579C14.2107 9.96086 14 10.4696 14 11C14 11.5304 14.2107 12.0391 14.5858 12.4142C14.9609 12.7893 15.4696 13 16 13ZM11 8C11.5304 8 12.0391 7.78929 12.4142 7.41421C12.7893 7.03914 13 6.53043 13 6C13 5.46957 12.7893 4.96086 12.4142 4.58579C12.0391 4.21071 11.5304 4 11 4C10.4696 4 9.96086 4.21071 9.58579 4.58579C9.21071 4.96086 9 5.46957 9 6C9 6.53043 9.21071 7.03914 9.58579 7.41421C9.96086 7.78929 10.4696 8 11 8ZM11 18C11.5304 18 12.0391 17.7893 12.4142 17.4142C12.7893 17.0391 13 16.5304 13 16C13 15.4696 12.7893 14.9609 12.4142 14.5858C12.0391 14.2107 11.5304 14 11 14C10.4696 14 9.96086 14.2107 9.58579 14.5858C9.21071 14.9609 9 15.4696 9 16C9 16.5304 9.21071 17.0391 9.58579 17.4142C9.96086 17.7893 10.4696 18 11 18Z" stroke="#3182CE" stroke-width="1.5" stroke-linecap="round" stroke-linejoin="round"/>
<path d="M1 11C1 16.523 5.477 21 11 21C16.523 21 21 16.523 21 11C21 5.477 16.523 1 11 1C5.477 1 1 5.477 1 11ZM1 11V21" stroke="#3182CE" stroke-width="1.5" stroke-linecap="round" stroke-linejoin="round"/>
<path d="M25.108 9.171C24.8133 9.171 24.564 9.069 24.36 8.865C24.156 8.661 24.054 8.41167 24.054 8.117C24.054 7.82233 24.156 7.573 24.36 7.369C24.564 7.165 24.8133 7.063 25.108 7.063C25.3913 7.063 25.6293 7.165 25.822 7.369C26.026 7.573 26.128 7.82233 26.128 8.117C26.128 8.41167 26.026 8.661 25.822 8.865C25.6293 9.069 25.3913 9.171 25.108 9.171ZM25.856 10.684V20H24.309V10.684H25.856ZM33.0316 10.514C34.1649 10.514 35.0829 10.8597 35.7856 11.551C36.4883 12.231 36.8396 13.217 36.8396 14.509V20H35.3096V14.73C35.3096 13.8007 35.0773 13.0923 34.6126 12.605C34.1479 12.1063 33.5133 11.857 32.7086 11.857C31.8926 11.857 31.2409 12.112 30.7536 12.622C30.2776 13.132 30.0396 13.8743 30.0396 14.849V20H28.4926V10.684H30.0396V12.01C30.3456 11.534 30.7593 11.1657 31.2806 10.905C31.8133 10.6443 32.3969 10.514 33.0316 10.514ZM47.8666 14.985C47.8666 15.2797 47.8496 15.5913 47.8156 15.92H40.3696C40.4263 16.838 40.738 17.5577 41.3046 18.079C41.8826 18.589 42.5796 18.844 43.3956 18.844C44.0643 18.844 44.6196 18.691 45.0616 18.385C45.515 18.0677 45.8323 17.6483 46.0136 17.127H47.6796C47.4303 18.0223 46.9316 18.7533 46.1836 19.32C45.4356 19.8753 44.5063 20.153 43.3956 20.153C42.5116 20.153 41.7183 19.9547 41.0156 19.558C40.3243 19.1613 39.7803 18.6003 39.3836 17.875C38.987 17.1383 38.7886 16.2883 38.7886 15.325C38.7886 14.3617 38.9813 13.5173 39.3666 12.792C39.752 12.0667 40.2903 11.5113 40.9816 11.126C41.6843 10.7293 42.489 10.531 43.3956 10.531C44.2796 10.531 45.0616 10.7237 45.7416 11.109C46.4216 11.4943 46.943 12.027 47.3056 12.707C47.6796 13.3757 47.8666 14.135 47.8666 14.985ZM46.2686 14.662C46.2686 14.0727 46.1383 13.5683 45.8776 13.149C45.617 12.7183 45.26 12.3953 44.8066 12.18C44.3646 11.9533 43.8716 11.84 43.3276 11.84C42.5456 11.84 41.877 12.0893 41.3216 12.588C40.7776 13.0867 40.466 13.778 40.3866 14.662H46.2686ZM61.1116 10.514C61.8369 10.514 62.4829 10.667 63.0496 10.973C63.6163 11.2677 64.0639 11.7153 64.3926 12.316C64.7213 12.9167 64.8856 13.6477 64.8856 14.509V20H63.3556V14.73C63.3556 13.8007 63.1233 13.0923 62.6586 12.605C62.2053 12.1063 61.5876 11.857 60.8056 11.857C60.0009 11.857 59.3606 12.1177 58.8846 12.639C58.4086 13.149 58.1706 13.8913 58.1706 14.866V20H56.6406V14.73C56.6406 13.8007 56.4083 13.0923 55.9436 12.605C55.4903 12.1063 54.8726 11.857 54.0906 11.857C53.2859 11.857 52.6456 12.1177 52.1696 12.639C51.6936 13.149 51.4556 13.8913 51.4556 14.866V20H49.9086V10.684H51.4556V12.027C51.7616 11.5397 52.1696 11.1657 52.6796 10.905C53.2009 10.6443 53.7733 10.514 54.3966 10.514C55.1786 10.514 55.8699 10.6897 56.4706 11.041C57.0713 11.3923 57.5189 11.908 57.8136 12.588C58.0743 11.9307 58.5049 11.4207 59.1056 11.058C59.7063 10.6953 60.3749 10.514 61.1116 10.514ZM66.8453 15.308C66.8453 14.356 67.0379 13.523 67.4233 12.809C67.8086 12.0837 68.3356 11.5227 69.0043 11.126C69.6843 10.7293 70.4379 10.531 71.2653 10.531C72.0813 10.531 72.7896 10.7067 73.3903 11.058C73.9909 11.4093 74.4386 11.8513 74.7333 12.384V10.684H76.2973V20H74.7333V18.266C74.4273 18.81 73.9683 19.2633 73.3563 19.626C72.7556 19.9773 72.0529 20.153 71.2483 20.153C70.4209 20.153 69.6729 19.949 69.0043 19.541C68.3356 19.133 67.8086 18.5607 67.4233 17.824C67.0379 17.0873 66.8453 16.2487 66.8453 15.308ZM74.7333 15.325C74.7333 14.6223 74.5916 14.0103 74.3083 13.489C74.0249 12.9677 73.6396 12.571 73.1523 12.299C72.6763 12.0157 72.1493 11.874 71.5713 11.874C70.9933 11.874 70.4663 12.01 69.9903 12.282C69.5143 12.554 69.1346 12.9507 68.8513 13.472C68.5679 13.9933 68.4263 14.6053 68.4263 15.308C68.4263 16.022 68.5679 16.6453 68.8513 17.178C69.1346 17.6993 69.5143 18.1017 69.9903 18.385C70.4663 18.657 70.9933 18.793 71.5713 18.793C72.1493 18.793 72.6763 18.657 73.1523 18.385C73.6396 18.1017 74.0249 17.6993 74.3083 17.178C74.5916 16.6453 74.7333 16.0277 74.7333 15.325ZM80.7985 11.959V17.45C80.7985 17.9033 80.8949 18.2263 81.0875 18.419C81.2802 18.6003 81.6145 18.691 82.0905 18.691H83.2295V20H81.8355C80.9742 20 80.3282 19.8017 79.8975 19.405C79.4669 19.0083 79.2515 18.3567 79.2515 17.45V11.959H78.0445V10.684H79.2515V8.338H80.7985V10.684H83.2295V11.959H80.7985ZM93.6039 14.985C93.6039 15.2797 93.5869 15.5913 93.5529 15.92H86.1069C86.1636 16.838 86.4753 17.5577 87.0419 18.079C87.6199 18.589 88.3169 18.844 89.1329 18.844C89.8016 18.844 90.3569 18.691 90.7989 18.385C91.2523 18.0677 91.5696 17.6483 91.7509 17.127H93.4169C93.1676 18.0223 92.6689 18.7533 91.9209 19.32C91.1729 19.8753 90.2436 20.153 89.1329 20.153C88.2489 20.153 87.4556 19.9547 86.7529 19.558C86.0616 19.1613 85.5176 18.6003 85.1209 17.875C84.7243 17.1383 84.5259 16.2883 84.5259 15.325C84.5259 14.3617 84.7186 13.5173 85.1039 12.792C85.4893 12.0667 86.0276 11.5113 86.7189 11.126C87.4216 10.7293 88.2263 10.531 89.1329 10.531C90.0169 10.531 90.7989 10.7237 91.4789 11.109C92.1589 11.4943 92.6803 12.027 93.0429 12.707C93.4169 13.3757 93.6039 14.135 93.6039 14.985ZM92.0059 14.662C92.0059 14.0727 91.8756 13.5683 91.6149 13.149C91.3543 12.7183 90.9973 12.3953 90.5439 12.18C90.1019 11.9533 89.6089 11.84 89.0649 11.84C88.2829 11.84 87.6143 12.0893 87.0589 12.588C86.5149 13.0867 86.2033 13.778 86.1239 14.662H92.0059Z" fill="#3182CE"/>
</svg>
